/* XPM */
static char * down_xpm[] = {
"32 32 189 2",
"  	c None",
". 	c #5F7C32",
"+ 	c #5E7C32",
"@ 	c #5E7C31",
"# 	c #5F7B31",
"$ 	c #5F7C31",
"% 	c #5F7D32",
"& 	c #719245",
"* 	c #98B477",
"= 	c #A0BC80",
"- 	c #97B474",
"; 	c #80A259",
"> 	c #628334",
", 	c #5E7B32",
"' 	c #799B4F",
") 	c #D6E7C6",
"! 	c #FEFEFD",
"~ 	c #F3F8EF",
"{ 	c #E8F2DF",
"] 	c #DCEBCE",
"^ 	c #CFE4BD",
"/ 	c #BDD9A4",
"( 	c #92B96D",
"_ 	c #628434",
": 	c #628233",
"< 	c #E7F2DE",
"[ 	c #F7FBF4",
"} 	c #B1D492",
"| 	c #8ABE5D",
"1 	c #7CB64B",
"2 	c #7DB54C",
"3 	c #86B959",
"4 	c #9DC77A",
"5 	c #ADCF90",
"6 	c #90BB69",
"7 	c #5F7C33",
"8 	c #7F9F57",
"9 	c #FFFFFF",
"0 	c #A9D088",
"a 	c #6DAE36",
"b 	c #6CAC35",
"c 	c #6CAB35",
"d 	c #6BA934",
"e 	c #6AA834",
"f 	c #69A733",
"g 	c #87B85D",
"h 	c #97C173",
"i 	c #66853A",
"j 	c #88A763",
"k 	c #9AC673",
"l 	c #6BAA35",
"m 	c #6AA934",
"n 	c #69A734",
"o 	c #68A633",
"p 	c #67A432",
"q 	c #79AE4B",
"r 	c #8EBA67",
"s 	c #67873B",
"t 	c #8AA865",
"u 	c #F6FAF2",
"v 	c #90C068",
"w 	c #68A533",
"x 	c #66A232",
"y 	c #75AB46",
"z 	c #84B45C",
"A 	c #638537",
"B 	c #8FAC6D",
"C 	c #EEF5E7",
"D 	c #8BBC61",
"E 	c #67A332",
"F 	c #66A231",
"G 	c #65A031",
"H 	c #71A741",
"I 	c #7BAC50",
"J 	c #628433",
"K 	c #8EAC6A",
"L 	c #E5F0DC",
"M 	c #83B657",
"N 	c #65A131",
"O 	c #649F31",
"P 	c #639E30",
"Q 	c #6DA33D",
"R 	c #71A443",
"S 	c #618332",
"T 	c #91AE70",
"U 	c #DCEAD0",
"V 	c #7EB251",
"W 	c #649F30",
"X 	c #639D30",
"Y 	c #629C2F",
"Z 	c #689E38",
"` 	c #669D36",
" .	c #5F8531",
"..	c #8EAB6C",
"+.	c #D3E5C4",
"@.	c #77AC49",
"#.	c #629D30",
"$.	c #629B2F",
"%.	c #619A2F",
"&.	c #649A33",
"*.	c #5F972E",
"=.	c #5F8430",
"-.	c #607B32",
";.	c #CBDFB9",
">.	c #74A945",
",.	c #60992E",
"'.	c #5F982E",
").	c #5F962E",
"!.	c #5E952D",
"~.	c #8EAF6C",
"{.	c #C1D9AD",
"].	c #6DA43D",
"^.	c #60982E",
"/.	c #5D942D",
"(.	c #5C932C",
"_.	c #5E8330",
":.	c #607D33",
"<.	c #5F7E32",
"[.	c #7B9D52",
"}.	c #A1BE83",
"|.	c #B4CD9B",
"1.	c #C5DBB2",
"2.	c #B8D2A1",
"3.	c #6AA13A",
"4.	c #5E962D",
"5.	c #5D952D",
"6.	c #5D932C",
"7.	c #5C922C",
"8.	c #5B902B",
"9.	c #5A8E2B",
"0.	c #5B8B2D",
"a.	c #5C882E",
"b.	c #5D832F",
"c.	c #76944D",
"d.	c #D6E5C8",
"e.	c #E3EED9",
"f.	c #D4E5C6",
"g.	c #B7D2A0",
"h.	c #A0C381",
"i.	c #89B463",
"j.	c #5B912B",
"k.	c #5A902B",
"l.	c #5A8F2B",
"m.	c #5B8C2D",
"n.	c #5E7D31",
"o.	c #5F7B32",
"p.	c #A6BC8C",
"q.	c #E6F0DE",
"r.	c #C6DCB4",
"s.	c #6AA139",
"t.	c #617F33",
"u.	c #C0D5AD",
"v.	c #CEE0BE",
"w.	c #75A849",
"x.	c #5D942C",
"y.	c #5C892E",
"z.	c #6C8A42",
"A.	c #BFD5AB",
"B.	c #AECB94",
"C.	c #649A35",
"D.	c #5B8D2C",
"E.	c #799952",
"F.	c #AFCB97",
"G.	c #8DB46B",
"H.	c #5E8030",
"I.	c #82A35E",
"J.	c #99BB7B",
"K.	c #72A148",
"L.	c #5D852E",
"M.	c #607E33",
"N.	c #81A75C",
"O.	c #80AA5C",
"P.	c #609333",
"Q.	c #5B8A2D",
"R.	c #628136",
"S.	c #739F4B",
"T.	c #6A9A3F",
"U.	c #5B8F2C",
"V.	c #5A8D2B",
"W.	c #5F7D31",
"X.	c #618233",
"Y.	c #5F7D33",
"Z.	c #5D8230",
"`.	c #5E7B31",
" +	c #5C842F",
".+	c #5D852F",
"++	c #5D8130",
"@+	c #5A8E2C",
"#+	c #607C32",
"                                                                ",
"                                                                ",
"                        . + . . . . @ #                         ",
"                    $ . % & * = - ; > . . .                     ",
"                  , . ' ) ! ~ { ] ^ / ( _ .                     ",
"                  . : < [ } | 1 2 3 4 5 6 % 7                   ",
"                  . 8 9 0 a b c d e f g h i .                   ",
"                  . j ! k b l m n o p q r s .                   ",
"                  . t u v d e f w p x y z A .                   ",
"                  . B C D n o p E F G H I J .                   ",
"                  . K L M w p x N O P Q R S .                   ",
"                  . T U V E F G W X Y Z `  ..                   ",
"                  . ..+.@.N O P #.$.%.&.*.=..                   ",
"                -.. T ;.>.W X Y %.,.'.).!.=.. 7                 ",
"            . . . . ~.{.].#.$.%.^.*.!./.(._.. . . .             ",
"        :.. <.[.}.|.1.2.3.%.,.'.4.5.6.7.8.9.0.a.b.. .           ",
"        . c.d.e.f.g.h.i.%.^.*.!./.(.j.k.l.l.l.l.l.m.n.o.        ",
"        . p.q.r.s.Y %.,.'.4.5.6.7.8.l.l.l.l.l.l.l.l.% .         ",
"        . t.u.v.w.%.^.*.!.x.7.j.k.l.l.l.l.l.l.l.l.y.. 7         ",
"          . z.A.B.C.4.5.6.7.8.l.l.l.l.l.l.l.l.l.D.+ +           ",
"          $ . E.F.G.x.7.j.k.l.l.l.l.l.l.l.l.l.l.H..             ",
"            . . I.J.K.8.l.l.l.l.l.l.l.l.l.l.l.L.. .             ",
"              . M.N.O.P.l.l.l.l.l.l.l.l.l.l.Q.. n.              ",
"                . R.S.T.U.l.l.l.l.l.l.l.l.V.n..                 ",
"                W.. X.P.l.l.l.l.l.l.l.l.9.H.. Y.                ",
"                  -.. b.9.l.l.l.l.l.l.9.Z.. .                   ",
"                    , . b.9.l.l.l.l.9.b.. .                     ",
"                      `..  +9.l.l.9..+. o.                      ",
"                        o.. ++9.@+Z.. .                         ",
"                          #+. n.n.. .                           ",
"                              . .                               ",
"                                                                "};
