/* XPM */
static char * exit_xpm[] = {
"24 24 298 2",
"  	c None",
". 	c #660000",
"+ 	c #650000",
"@ 	c #6A0505",
"# 	c #A23F3F",
"$ 	c #DC8E8E",
"% 	c #F1AFAF",
"& 	c #F9BFBF",
"* 	c #FABEBE",
"= 	c #F2ACAC",
"- 	c #DF7D7D",
"; 	c #AA3939",
"> 	c #6F0707",
", 	c #AC5151",
"' 	c #F7B5B5",
") 	c #FFDDDD",
"! 	c #FFE5E5",
"~ 	c #F99797",
"{ 	c #B63030",
"] 	c #680202",
"^ 	c #6E0909",
"/ 	c #DB8D8D",
"( 	c #FFC7C7",
"_ 	c #FFD2D2",
": 	c #FED0D0",
"< 	c #B87F7F",
"[ 	c #CFAFAF",
"} 	c #BA8686",
"| 	c #FDD0D0",
"1 	c #FFBFBF",
"2 	c #E24949",
"3 	c #730606",
"4 	c #E69B9B",
"5 	c #FFB9B9",
"6 	c #FFBDBD",
"7 	c #D38B8B",
"8 	c #AD7171",
"9 	c #C18F8F",
"0 	c #FFFFFF",
"a 	c #CFADAD",
"b 	c #AD6C6C",
"c 	c #C88282",
"d 	c #FEBCBC",
"e 	c #FFB7B7",
"f 	c #E73737",
"g 	c #6D0101",
"h 	c #670000",
"i 	c #D07D7D",
"j 	c #FFA7A7",
"k 	c #FEA8A8",
"l 	c #BD7373",
"m 	c #F0E6E6",
"n 	c #DBC3C3",
"o 	c #FFA9A9",
"p 	c #C18D8D",
"q 	c #CFACAC",
"r 	c #C79E9E",
"s 	c #F7F1F1",
"t 	c #B97777",
"u 	c #FBA4A4",
"v 	c #FF9E9E",
"w 	c #CC1515",
"x 	c #640000",
"y 	c #923131",
"z 	c #FE9696",
"A 	c #FF9494",
"B 	c #C06D6D",
"C 	c #F8F3F3",
"D 	c #D9C0C0",
"E 	c #C18B8B",
"F 	c #CFABAB",
"G 	c #C69B9B",
"H 	c #FDFCFC",
"I 	c #B97070",
"J 	c #FD7171",
"K 	c #F21E1E",
"L 	c #910000",
"M 	c #DF7E7E",
"N 	c #FF7E7E",
"O 	c #E06A6A",
"P 	c #E8D9D9",
"Q 	c #EBDEDE",
"R 	c #C36262",
"S 	c #FF8080",
"T 	c #C18888",
"U 	c #CFAAAA",
"V 	c #D05E5E",
"W 	c #E1CDCD",
"X 	c #F5EFEF",
"Y 	c #C91616",
"Z 	c #ED0000",
"` 	c #D20000",
" .	c #7A1515",
"..	c #FE8585",
"+.	c #FF7373",
"@.	c #BE7B7B",
"#.	c #FBF9F9",
"$.	c #BF5C5C",
"%.	c #FF6464",
"&.	c #FF5E5E",
"*.	c #C18383",
"=.	c #CFA7A7",
"-.	c #FF2E2E",
";.	c #FF2020",
">.	c #CB2828",
",.	c #F4EDED",
"'.	c #C48D8D",
").	c #EB0000",
"!.	c #E20000",
"~.	c #7E0000",
"{.	c #B04B4B",
"].	c #FF6969",
"^.	c #F46262",
"/.	c #DCC5C5",
"(.	c #CDA7A7",
"_.	c #FB6161",
":.	c #FF5C5C",
"<.	c #FF5454",
"[.	c #C18282",
"}.	c #FF2626",
"|.	c #FF1C1C",
"1.	c #FF1212",
"2.	c #C28080",
"3.	c #F2E9E9",
"4.	c #CE0101",
"5.	c #DF0000",
"6.	c #A00000",
"7.	c #C14D4D",
"8.	c #D54949",
"9.	c #C06868",
"0.	c #FF5959",
"a.	c #FF5353",
"b.	c #FF4D4D",
"c.	c #C18080",
"d.	c #FF2222",
"e.	c #FF1818",
"f.	c #FF0E0E",
"g.	c #C52C2C",
"h.	c #BB2323",
"i.	c #DD0000",
"j.	c #AF0000",
"k.	c #5A0000",
"l.	c #CD5050",
"m.	c #FF5151",
"n.	c #CC4747",
"o.	c #C65454",
"p.	c #FF4F4F",
"q.	c #FF4A4A",
"r.	c #FF4444",
"s.	c #C17F7F",
"t.	c #CFA6A6",
"u.	c #FF1313",
"v.	c #FF0909",
"w.	c #D00707",
"x.	c #B83C3C",
"y.	c #D90000",
"z.	c #B60000",
"A.	c #5D0000",
"B.	c #C64141",
"C.	c #FF4747",
"D.	c #CF3B3B",
"E.	c #C35252",
"F.	c #FF4545",
"G.	c #FF4141",
"H.	c #FF3B3B",
"I.	c #C17E7E",
"J.	c #FF1616",
"K.	c #FF0D0D",
"L.	c #FF0404",
"M.	c #CB0F0F",
"N.	c #B63131",
"O.	c #D50000",
"P.	c #B00000",
"Q.	c #B83535",
"R.	c #FF3C3C",
"S.	c #E13333",
"T.	c #F1E7E7",
"U.	c #C07575",
"V.	c #FF3737",
"W.	c #FF3232",
"X.	c #C17D7D",
"Y.	c #FF0F0F",
"Z.	c #FF0707",
"`.	c #FD0000",
" +	c #BD4545",
".+	c #FEFDFD",
"++	c #B71111",
"@+	c #D10000",
"#+	c #A30000",
"$+	c #570000",
"%+	c #992222",
"&+	c #FF3333",
"*+	c #FE3434",
"=+	c #CAA0A0",
"-+	c #E3CFCF",
";+	c #E82C2C",
">+	c #FF2D2D",
",+	c #FF2929",
"'+	c #B76666",
")+	c #E0CCCC",
"!+	c #BE8585",
"~+	c #FF0808",
"{+	c #FF0000",
"]+	c #EE0000",
"^+	c #D1ADAD",
"/+	c #CD0000",
"(+	c #8C0000",
"_+	c #6A0707",
":+	c #F53333",
"<+	c #C14242",
"[+	c #BF7D7D",
"}+	c #F82121",
"|+	c #FF1F1F",
"1+	c #F81919",
"2+	c #F51313",
"3+	c #F50D0D",
"4+	c #F70707",
"5+	c #F60000",
"6+	c #B55555",
"7+	c #FEFEFE",
"8+	c #B35454",
"9+	c #D00000",
"0+	c #C70000",
"a+	c #6E0000",
"b+	c #B91D1D",
"c+	c #F71D1D",
"d+	c #C79797",
"e+	c #C28484",
"f+	c #E11717",
"g+	c #FF1010",
"h+	c #FF0B0B",
"i+	c #FF0505",
"j+	c #FE0000",
"k+	c #E20101",
"l+	c #B96666",
"m+	c #FBF8F8",
"n+	c #D7BABA",
"o+	c #C50101",
"p+	c #CA0000",
"q+	c #5C0000",
"r+	c #710505",
"s+	c #F11515",
"t+	c #FF1414",
"u+	c #E41616",
"v+	c #D7B8B8",
"w+	c #EBDDDD",
"x+	c #C48383",
"y+	c #C05353",
"z+	c #BE4E4E",
"A+	c #C07979",
"B+	c #E4D1D1",
"C+	c #E4D2D2",
"D+	c #CC0000",
"E+	c #C20000",
"F+	c #720000",
"G+	c #8E0303",
"H+	c #FB0A0A",
"I+	c #E50B0B",
"J+	c #FCFAFA",
"K+	c #CBA3A3",
"L+	c #BB0C0C",
"M+	c #C60000",
"N+	c #860000",
"O+	c #9B0000",
"P+	c #F90000",
"Q+	c #F70000",
"R+	c #C22323",
"S+	c #C38787",
"T+	c #F4ECEC",
"U+	c #F6F0F0",
"V+	c #E5D3D3",
"W+	c #C49191",
"X+	c #B33434",
"Y+	c #C50000",
"Z+	c #900000",
"`+	c #F10000",
" @	c #EF0000",
".@	c #EC0000",
"+@	c #CF0000",
"@@	c #D70000",
"#@	c #CB0000",
"$@	c #BE0000",
"%@	c #820000",
"&@	c #590000",
"*@	c #9F0000",
"=@	c #D30000",
"-@	c #DC0000",
";@	c #CE0000",
">@	c #BF0000",
",@	c #970000",
"'@	c #6A0000",
")@	c #610000",
"!@	c #780000",
"~@	c #8E0000",
"{@	c #980000",
"]@	c #8A0000",
"^@	c #790000",
"/@	c #630000",
"                    . + + +                     ",
"              @ # $ % & * = - ; >               ",
"          . , ' ) ! ! ! ! ! ! ) ~ { ]           ",
"        ^ / ( _ : _ < [ [ } _ | _ 1 2 3         ",
"      @ 4 5 6 7 8 6 9 0 0 a 6 b c d e f g       ",
"    h i j k l m n o p 0 0 q o r s t u v w x     ",
"    y z A B C 0 D A E 0 0 F A G 0 H I J K L     ",
"  h M N O P 0 Q R S T 0 0 U S V W 0 X Y Z ` x   ",
"   ...+.@.0 #.$.%.&.*.0 0 =.-.;.>.,.0 '.).!.~.  ",
"  {.].^./.0 (._.:.<.[.0 0 =.}.|.1.2.0 3.4.5.6.  ",
"  7.:.8.#.0 9.0.a.b.c.0 0 =.d.e.f.g.0 0 h.i.j.k.",
"  l.m.n.0 0 o.p.q.r.s.0 0 t.|.u.v.w.0 0 x.y.z.A.",
"  B.C.D.0 0 E.F.G.H.I.0 0 t.J.K.L.M.0 0 N.O.P.k.",
"  Q.R.S.T.0 U.H.V.W.X.0 0 t.Y.Z.`. +0 .+++@+#+$+",
"  %+&+*+=+0 -+;+>+,+'+)+)+!+~+{+]+^+0 n /+/+(+  ",
"  _+:+,+<+.+0 [+}+|+1+2+3+4+{+5+6+7+0 8+9+0+a+  ",
"    b+|+c+d+0 7+e+f+g+h+i+j+k+l+m+0 n+o+p+#+q+  ",
"    r+s+t+u+v+0 0 w+x+y+z+A+B+0 0 C+++D+E+F+    ",
"      G+H+v.I+'.J+0 0 0 0 0 0 7+K+L+/+M+N+      ",
"        O+P+`.Q+R+S+)+T+U+V+W+X+/+D+Y+Z+q+      ",
"          N+!.`+ @.@i.p+Y++@@@@+#@$@%@&@        ",
"            h *@=@!.5.-@@@=@;@>@,@'@            ",
"                )@!@~@,@{@]@^@/@                ",
"                                                "};
