/* XPM */
static char * left_xpm[] = {
"32 32 152 2",
"  	c None",
". 	c #5E7D32",
"+ 	c #5E7C31",
"@ 	c #5F7D32",
"# 	c #5F7C32",
"$ 	c #5F7C31",
"% 	c #829E5E",
"& 	c #ECF4E6",
"* 	c #DAE9CE",
"= 	c #628035",
"- 	c #5F7D33",
"; 	c #A6C08B",
"> 	c #FAFCF8",
", 	c #FFFFFF",
"' 	c #9EBA7F",
") 	c #5E7C32",
"! 	c #67863C",
"~ 	c #CCDEBB",
"{ 	c #EBF4E4",
"] 	c #A6CF87",
"^ 	c #F1F7EC",
"/ 	c #DBE9CE",
"( 	c #607C32",
"_ 	c #5F7D31",
": 	c #7D9B57",
"< 	c #E6F0DD",
"[ 	c #D5E8C7",
"} 	c #94C26E",
"| 	c #90C069",
"1 	c #C9E1B7",
"2 	c #FDFEFC",
"3 	c #68843C",
"4 	c #5F7B32",
"5 	c #95B375",
"6 	c #F3F8EF",
"7 	c #F8FBF5",
"8 	c #B6D59D",
"9 	c #8BBB63",
"0 	c #A9CD8D",
"a 	c #FBFDFA",
"b 	c #96B177",
"c 	c #607D32",
"d 	c #607E34",
"e 	c #A0BE82",
"f 	c #EAF2E3",
"g 	c #E0ECD6",
"h 	c #99C278",
"i 	c #86B65E",
"j 	c #85B65D",
"k 	c #93BF70",
"l 	c #DEECD4",
"m 	c #DEEBD4",
"n 	c #DFEBD4",
"o 	c #E5EFDC",
"p 	c #E4EEDC",
"q 	c #E0ECD7",
"r 	c #BCD2A7",
"s 	c #69883E",
"t 	c #618034",
"u 	c #A7C48A",
"v 	c #DBE9D0",
"w 	c #CADFB9",
"x 	c #8AB764",
"y 	c #81B158",
"z 	c #80B158",
"A 	c #B4D19C",
"B 	c #BDD7A8",
"C 	c #BDD6A8",
"D 	c #BBD5A6",
"E 	c #DBE9CF",
"F 	c #B5CF9E",
"G 	c #628136",
"H 	c #A6C48B",
"I 	c #CBDEBA",
"J 	c #B4D09D",
"K 	c #80AE57",
"L 	c #7CAC52",
"M 	c #7BAC52",
"N 	c #7BAB51",
"O 	c #7AAB51",
"P 	c #A7C78C",
"Q 	c #C9DDB8",
"R 	c #709147",
"S 	c #95B776",
"T 	c #B8D1A2",
"U 	c #A0C182",
"V 	c #78A84E",
"W 	c #77A74D",
"X 	c #77A74C",
"Y 	c #76A74C",
"Z 	c #76A64C",
"` 	c #76A64B",
" .	c #75A64B",
"..	c #7CAA54",
"+.	c #B7D0A1",
"@.	c #8AA967",
"#.	c #769C4F",
"$.	c #A4C389",
"%.	c #93B872",
"&.	c #73A248",
"*.	c #72A247",
"=.	c #71A246",
"-.	c #71A146",
";.	c #71A145",
">.	c #70A145",
",.	c #70A045",
"'.	c #A0C084",
").	c #8BAB68",
"!.	c #7BA355",
"~.	c #8FB46E",
"{.	c #72A047",
"].	c #6D9D41",
"^.	c #6C9D41",
"/.	c #6C9C40",
"(.	c #6B9B3F",
"_.	c #89AF66",
":.	c #81A45C",
"<.	c #638538",
"[.	c #78A251",
"}.	c #76A14E",
"|.	c #69993D",
"1.	c #68983B",
"2.	c #67973B",
"3.	c #67973A",
"4.	c #66963A",
"5.	c #669639",
"6.	c #76A14D",
"7.	c #6D9543",
"8.	c #628634",
"9.	c #659538",
"0.	c #628935",
"a.	c #618735",
"b.	c #659438",
"c.	c #618233",
"d.	c #618535",
"e.	c #649538",
"f.	c #638F36",
"g.	c #5F7B31",
"h.	c #618333",
"i.	c #649337",
"j.	c #649237",
"k.	c #638C36",
"l.	c #638B36",
"m.	c #5F7F32",
"n.	c #649137",
"o.	c #5F7E32",
"p.	c #5F7C33",
"q.	c #659338",
"r.	c #618534",
"s.	c #608133",
"t.	c #628A36",
"u.	c #5E7B31",
"                                                                ",
"                                                                ",
"                                                                ",
"                            . +                                 ",
"                        @ # # # #                               ",
"                      $ # % & * = -                             ",
"                  $ # @ ; > , , ' #                             ",
"                ) # ! ~ , { ] ^ / # (                           ",
"              _ # : < , [ } | 1 2 3 # 4 # # # # # @ )           ",
"            4 @ 5 6 7 8 9 9 9 0 a b = c # # # # # # # # 4       ",
"          # d e f g h i i i j k & & l l m n o o p q r s #       ",
"        # t u v w x y y y z z z A B B C C C C C D C E F ( #     ",
"      # G H I J K L L L M M M M N N N N N N N O O O P Q R #     ",
"    ) - S T U V W X X X X Y Y Z Z Z Z Z ` `  . . . ...+.@.#     ",
"  $ # #.$.%.&.*.*.*.*.*.=.=.=.-.-.-.-.-.-.;.;.>.>.,.,.'.).#     ",
"  @ # !.~.{.].].].].].].^.^././././././././.(.(.(.(.(._.:.# $   ",
"    # <.[.}.|.1.1.1.1.2.2.2.2.3.3.3.3.3.3.4.4.4.5.5.5.6.7.#     ",
"    # # 8.9.9.9.9.9.9.9.9.9.9.9.9.9.9.9.9.9.9.9.9.9.9.9.0.#     ",
"      4 # a.b.9.9.9.9.9.9.9.9.9.9.9.9.9.9.9.9.9.9.9.9.9.c.#     ",
"        4 # d.e.9.9.9.9.9.9.9.9.9.9.9.9.9.9.9.9.9.9.9.f.# g.    ",
"          4 # h.i.9.9.9.9.9.9.9.9.j.k.k.k.k.l.l.l.l.0.@ #       ",
"            ) # m.n.9.9.9.9.9.9.9.o.# # # # # # # # # #         ",
"              p.# # k.9.9.9.9.9.q.# # $                         ",
"                  ) # r.b.9.9.9.f.# $                           ",
"                    4 # s.n.9.9.d.#                             ",
"                      # # # t.k.# u.                            ",
"                          # # # 4                               ",
"                            p.p.                                ",
"                                                                ",
"                                                                ",
"                                                                ",
"                                                                "};
