/* XPM */
static char * next_xpm[] = {
"24 24 173 2",
"  	c None",
". 	c #468CD6",
"+ 	c #0A67C7",
"@ 	c #A7C8EB",
"# 	c #E0EBF6",
"$ 	c #408BD8",
"% 	c #005EB8",
"& 	c #A8C7E9",
"* 	c #FBFBFB",
"= 	c #FBFCFC",
"- 	c #88B6E6",
"; 	c #0664C5",
"> 	c #A7C6E7",
", 	c #F9F9F9",
"' 	c #FAFAFB",
") 	c #FDFDFD",
"! 	c #D1E3F5",
"~ 	c #267CD1",
"{ 	c #004DA9",
"] 	c #A6C4E6",
"^ 	c #F8F8F8",
"/ 	c #85B3FD",
"( 	c #D2E2FC",
"_ 	c #FCFCFC",
": 	c #F5F9FC",
"< 	c #5599DC",
"[ 	c #005DB9",
"} 	c #00419F",
"| 	c #3D71BE",
"1 	c #4278C2",
"2 	c #4279C4",
"3 	c #427AC5",
"4 	c #427CC7",
"5 	c #427EC9",
"6 	c #4280CA",
"7 	c #BCD1EA",
"8 	c #F6F6F6",
"9 	c #6AA0FA",
"0 	c #458CFF",
"a 	c #A4C6FD",
"b 	c #FDFDFE",
"c 	c #82B4E6",
"d 	c #0161BF",
"e 	c #003EA0",
"f 	c #E8EBEF",
"g 	c #EFEFEF",
"h 	c #F0F0F0",
"i 	c #F1F1F1",
"j 	c #F4F4F4",
"k 	c #F5F5F5",
"l 	c #679DF5",
"m 	c #3F86FB",
"n 	c #428AFF",
"o 	c #81B0FE",
"p 	c #F5F7FC",
"q 	c #FEFEFE",
"r 	c #98C1EA",
"s 	c #0162BF",
"t 	c #003D9F",
"u 	c #E7E9ED",
"v 	c #EAEAEA",
"w 	c #99B1DC",
"x 	c #9BB4E0",
"y 	c #9DB7E3",
"z 	c #9FB9E5",
"A 	c #A3BDE9",
"B 	c #A4BFEC",
"C 	c #A7C2EF",
"D 	c #528DF0",
"E 	c #3B81F5",
"F 	c #68A1FE",
"G 	c #ECF2FC",
"H 	c #91BDE9",
"I 	c #005DBB",
"J 	c #003B9B",
"K 	c #E6E9ED",
"L 	c #E8E8E8",
"M 	c #1954C0",
"N 	c #1D59C6",
"O 	c #215ECC",
"P 	c #2463D1",
"Q 	c #2868D7",
"R 	c #2C6DDD",
"S 	c #3072E3",
"T 	c #3477E9",
"U 	c #377CEF",
"V 	c #639EFE",
"W 	c #EDF3FC",
"X 	c #5398DD",
"Y 	c #00389A",
"Z 	c #E5E8EC",
"` 	c #E7E7E7",
" .	c #154FBA",
"..	c #78ABFE",
"+.	c #DAE8F7",
"@.	c #005CB7",
"#.	c #003696",
"$.	c #E4E5E9",
"%.	c #E5E5E5",
"&.	c #114AB4",
"*.	c #78AAFD",
"=.	c #D7E5F4",
"-.	c #0059B3",
";.	c #003495",
">.	c #E3E5E9",
",.	c #E4E4E4",
"'.	c #0E45AE",
").	c #5D96F5",
"!.	c #EAEFF8",
"~.	c #F9F9FA",
"{.	c #4F90D6",
"].	c #003193",
"^.	c #E2E4E8",
"/.	c #E3E3E3",
"(.	c #8DA3CC",
"_.	c #8FA5CF",
":.	c #92A9D3",
"<.	c #93ABD5",
"[.	c #96AED9",
"}.	c #4177D5",
"|.	c #5B91EB",
"1.	c #E6ECF5",
"2.	c #8EB6E2",
"3.	c #004FA7",
"4.	c #003092",
"5.	c #E2E4E9",
"6.	c #E6E6E6",
"7.	c #E9E9E9",
"8.	c #EBEBEB",
"9.	c #ECECEC",
"0.	c #EEEEEE",
"a.	c #5180D4",
"b.	c #6F9AE4",
"c.	c #EBEDF1",
"d.	c #93B6E1",
"e.	c #0150AB",
"f.	c #002F8C",
"g.	c #3C62AF",
"h.	c #4066B1",
"i.	c #4068B3",
"j.	c #406AB5",
"k.	c #416CB7",
"l.	c #416EB9",
"m.	c #4170BB",
"n.	c #B8C8E1",
"o.	c #4D7BCE",
"p.	c #2461CD",
"q.	c #8FADE0",
"r.	c #EEEEEF",
"s.	c #F3F3F4",
"t.	c #7DA5D8",
"u.	c #004BA6",
"v.	c #003488",
"w.	c #A2B7D9",
"x.	c #658ACF",
"y.	c #BDCBE2",
"z.	c #ECEFF2",
"A.	c #5084C9",
"B.	c #004294",
"C.	c #A1B5D7",
"D.	c #E6E7E7",
"E.	c #C8D5E7",
"F.	c #2361B9",
"G.	c #A1B5D6",
"H.	c #ECECED",
"I.	c #82A1D0",
"J.	c #0644A2",
"K.	c #9EB1D4",
"L.	c #D3DAE5",
"M.	c #3A68B7",
"N.	c #003386",
"O.	c #436BB4",
"P.	c #0A3E9C",
"                                                ",
"                                                ",
"                    . +                         ",
"                    @ # $ %                     ",
"                    & * = - ;                   ",
"                    > , ' ) ! ~                 ",
"                  { ] ^ / ( _ : < [             ",
"    } | 1 2 3 4 5 6 7 8 9 0 a = b c d           ",
"    e f g h i i j j k k l m n o p q r s         ",
"    t u v w x y z A B C D E m n F G q H I       ",
"    J K L M N O P Q R S T U E m n V W q X       ",
"    Y Z `  .M N O P Q R S T U E m n .._ +.@.    ",
"    #.$.%.&. .M N O P Q R S T U E m *.* =.-.    ",
"    ;.>.,.'.&. .M N O P Q R S T U ).!.~.{.      ",
"    ].^./.(._.:.<.[.w x }.Q R S |.1.^ 2.3.      ",
"    4.5.6.` 7.v 8.9.0.8.a.P Q b.c.8 d.e.        ",
"    f.g.h.i.j.k.l.m.n.v o.p.q.r.s.t.u.          ",
"                  v.w.L x.y.0.z.A.B.            ",
"                    C.` D.9.E.F.                ",
"                    G.%.H.I.J.                  ",
"                    K.L.M.N.                    ",
"                    O.P.                        ",
"                                                ",
"                                                "};
