/* XPM */
static char * open_xpm[] = {
"24 24 193 2",
"  	c None",
". 	c #0152BB",
"+ 	c #6696DA",
"@ 	c #6998DA",
"# 	c #6998D8",
"$ 	c #6996D8",
"% 	c #6994D7",
"& 	c #6993D7",
"* 	c #6992D6",
"= 	c #6991D6",
"- 	c #4F7CCC",
"; 	c #003AAE",
"> 	c #0250BB",
", 	c #B3D7FF",
"' 	c #BFDDFF",
") 	c #C0DDFF",
"! 	c #BFD4F5",
"~ 	c #0037AD",
"{ 	c #024EBA",
"] 	c #9FCBFF",
"^ 	c #AED2FF",
"/ 	c #B9D3F8",
"( 	c #1B4CB6",
"_ 	c #1B4AB6",
": 	c #1B47B5",
"< 	c #1B46B4",
"[ 	c #1B44B3",
"} 	c #1B43B2",
"| 	c #1B40B1",
"1 	c #1B3EAF",
"2 	c #0426A3",
"3 	c #0249B8",
"4 	c #8EC0FF",
"5 	c #9FC8FF",
"6 	c #A6CCFF",
"7 	c #A7CDFF",
"8 	c #B0D2FF",
"9 	c #4465C6",
"0 	c #0148B8",
"a 	c #7DB5FF",
"b 	c #90BEFF",
"c 	c #70A6F1",
"d 	c #0755BE",
"e 	c #004EBA",
"f 	c #004BB8",
"g 	c #0049B7",
"h 	c #0047B6",
"i 	c #0044B4",
"j 	c #0042B3",
"k 	c #003FB1",
"l 	c #003DB0",
"m 	c #003BAF",
"n 	c #0038AD",
"o 	c #0036AC",
"p 	c #0033AB",
"q 	c #0031A9",
"r 	c #002FA8",
"s 	c #002CA6",
"t 	c #002AA5",
"u 	c #0026A3",
"v 	c #0146B6",
"w 	c #6BA9FF",
"x 	c #7CB3FF",
"y 	c #418CE6",
"z 	c #4F8AD9",
"A 	c #E0EFFF",
"B 	c #E1EFFF",
"C 	c #DAE9FC",
"D 	c #F0F6FF",
"E 	c #0025A2",
"F 	c #0143B4",
"G 	c #599EFF",
"H 	c #68A7FC",
"I 	c #3985E2",
"J 	c #2268CD",
"K 	c #A9CFFF",
"L 	c #B3D4FF",
"M 	c #96BDF3",
"N 	c #DBEAFF",
"O 	c #0022A1",
"P 	c #0041B3",
"Q 	c #4893FF",
"R 	c #5A9CF9",
"S 	c #327CDE",
"T 	c #1E64CC",
"U 	c #97C3FF",
"V 	c #A3CAFF",
"W 	c #89B4F2",
"X 	c #CCE3FF",
"Y 	c #00209F",
"Z 	c #003EB1",
"` 	c #3688FF",
" .	c #4C91F7",
"..	c #2B74DB",
"+.	c #195ECB",
"@.	c #84B8FF",
"#.	c #93BFFF",
"$.	c #7BA9F2",
"%.	c #BDD8FF",
"&.	c #001D9E",
"*.	c #003BB0",
"=.	c #297EFF",
"-.	c #3F87F5",
";.	c #236CD6",
">.	c #145ACA",
",.	c #71ACFF",
"'.	c #82B5FF",
").	c #6DA0F1",
"!.	c #ACD0FF",
"~.	c #001A9C",
"{.	c #0039B0",
"].	c #2077FD",
"^.	c #317FF3",
"/.	c #1C66D3",
"(.	c #0E55C9",
"_.	c #5FA0FF",
":.	c #72AAFF",
"<.	c #6096F0",
"[.	c #98C5FF",
"}.	c #00189B",
"|.	c #1870FD",
"1.	c #2479F1",
"2.	c #1560CE",
"3.	c #0950C8",
"4.	c #4D95FF",
"5.	c #629FFF",
"6.	c #528BF0",
"7.	c #86B9FF",
"8.	c #001599",
"9.	c #0034AB",
"0.	c #0F6AFC",
"a.	c #1871EF",
"b.	c #0D59CA",
"c.	c #054CC7",
"d.	c #3F89FF",
"e.	c #5294FF",
"f.	c #4581EF",
"g.	c #73ADFF",
"h.	c #001398",
"i.	c #0763FA",
"j.	c #0B6BEC",
"k.	c #0653C7",
"l.	c #0248C6",
"m.	c #3280FE",
"n.	c #428AFF",
"o.	c #3778EF",
"p.	c #60A2FF",
"q.	c #001096",
"r.	c #005BF9",
"s.	c #0061EA",
"t.	c #004DC2",
"u.	c #0044C3",
"v.	c #2878FD",
"w.	c #3483FF",
"x.	c #2C71EE",
"y.	c #4D96FE",
"z.	c #000E95",
"A.	c #002DA8",
"B.	c #003DE0",
"C.	c #003ACE",
"D.	c #0034B3",
"E.	c #0037B8",
"F.	c #064DE5",
"G.	c #084FE5",
"H.	c #084FE4",
"I.	c #084EE4",
"J.	c #084DE4",
"K.	c #084CE3",
"L.	c #084BE3",
"M.	c #084BE2",
"N.	c #084AE2",
"O.	c #094AE2",
"P.	c #073FD1",
"Q.	c #073ED2",
"R.	c #2D7AF6",
"S.	c #000B93",
"T.	c #002BA6",
"U.	c #0028A5",
"V.	c #002EA8",
"W.	c #002DA5",
"X.	c #0028A3",
"Y.	c #0023A0",
"Z.	c #001E9E",
"`.	c #001B9C",
" +	c #00199C",
".+	c #00179B",
"++	c #001498",
"@+	c #001397",
"#+	c #000F96",
"$+	c #000E94",
"%+	c #000C94",
"&+	c #000B94",
"*+	c #000991",
"                                                ",
"                                                ",
"                                                ",
"  . + @ # $ % & * = - ;                         ",
"  > , ' ' ' ' ' ' ) ! ~                         ",
"  { ] ^ ^ ^ ^ ^ ^ ^ / ( _ : < [ } | 1 2         ",
"  3 4 5 5 5 5 5 5 5 6 7 7 7 7 7 7 7 8 9         ",
"  0 a b c d e f g h i j k l m n o p q r s t u   ",
"  v w x y z A B B B B B B B B B B B B C C D E   ",
"  F G H I J K L L L L L L L L L L L L M M N O   ",
"  P Q R S T U V V V V V V V V V V V V W W X Y   ",
"  Z `  ...+.@.#.#.#.#.#.#.#.#.#.#.#.#.$.$.%.&.  ",
"  *.=.-.;.>.,.'.'.'.'.'.'.'.'.'.'.'.'.).).!.~.  ",
"  {.].^./.(._.:.:.:.:.:.:.:.:.:.:.:.:.<.<.[.}.  ",
"  ~ |.1.2.3.4.5.5.5.5.5.5.5.5.5.5.5.5.6.6.7.8.  ",
"  9.0.a.b.c.d.e.e.e.e.e.e.e.e.e.e.e.e.f.f.g.h.  ",
"  q i.j.k.l.m.n.n.n.n.n.n.n.n.n.n.n.n.o.o.p.q.  ",
"  r r.s.t.u.v.w.w.w.w.w.w.w.w.w.w.w.w.x.x.y.z.  ",
"  A.B.C.D.E.F.G.H.I.J.J.K.K.L.M.N.N.O.P.Q.R.S.  ",
"  T.U.u E V.W.t X.E Y.Y Z.`. +.+++@+#+$+%+&+*+  ",
"                                                ",
"                                                ",
"                                                ",
"                                                "};
