/* XPM */
static char * previous_xpm[] = {
"24 24 169 2",
"  	c None",
". 	c #0B66C4",
"+ 	c #468CD6",
"@ 	c #428BD7",
"# 	c #E1EBF6",
"$ 	c #A7C8EB",
"% 	c #0664C5",
"& 	c #8BB8E6",
"* 	c #FBFCFC",
"= 	c #FBFBFB",
"- 	c #A8C7E9",
"; 	c #277CD0",
"> 	c #D3E4F5",
", 	c #FDFDFD",
"' 	c #FAFAFB",
") 	c #F9F9F9",
"! 	c #A7C6E7",
"~ 	c #569BDE",
"{ 	c #F5F9FC",
"] 	c #FCFCFC",
"^ 	c #D2E2FC",
"/ 	c #85B3FD",
"( 	c #F8F8F8",
"_ 	c #A6C4E6",
": 	c #004493",
"< 	c #0161C1",
"[ 	c #87B7E7",
"} 	c #FDFDFE",
"| 	c #A4C6FD",
"1 	c #458CFF",
"2 	c #6AA0FA",
"3 	c #F6F6F6",
"4 	c #BCD1EA",
"5 	c #4280CA",
"6 	c #427EC9",
"7 	c #427CC7",
"8 	c #427AC5",
"9 	c #4279C4",
"0 	c #4278C2",
"a 	c #3D71BE",
"b 	c #003B93",
"c 	c #0162C0",
"d 	c #9AC2EA",
"e 	c #FEFEFE",
"f 	c #F4F7FC",
"g 	c #81B0FE",
"h 	c #428AFF",
"i 	c #3F86FB",
"j 	c #679DF5",
"k 	c #F5F5F5",
"l 	c #F4F4F4",
"m 	c #F1F1F1",
"n 	c #F0F0F0",
"o 	c #EFEFEF",
"p 	c #E8EBEF",
"q 	c #003A94",
"r 	c #0060BF",
"s 	c #93BEEA",
"t 	c #ECF2FC",
"u 	c #659FFE",
"v 	c #3B81F5",
"w 	c #528DF0",
"x 	c #A7C2EF",
"y 	c #A4BFEC",
"z 	c #A3BDE9",
"A 	c #9FB9E5",
"B 	c #9DB7E3",
"C 	c #9BB4E0",
"D 	c #99B1DC",
"E 	c #EAEAEA",
"F 	c #E7E9ED",
"G 	c #003892",
"H 	c #629DFE",
"I 	c #377CEF",
"J 	c #3477E9",
"K 	c #3072E3",
"L 	c #2C6DDD",
"M 	c #2868D7",
"N 	c #2463D1",
"O 	c #215ECC",
"P 	c #1D59C6",
"Q 	c #1954C0",
"R 	c #E8E8E8",
"S 	c #E6E9ED",
"T 	c #00358F",
"U 	c #005DBB",
"V 	c #DAE8F7",
"W 	c #77AAFE",
"X 	c #154FBA",
"Y 	c #E7E7E7",
"Z 	c #E5E8EC",
"` 	c #00348E",
" .	c #005AB5",
"..	c #D8E6F4",
"+.	c #77AAFD",
"@.	c #124AB4",
"#.	c #E5E5E5",
"$.	c #E4E5E9",
"%.	c #00328B",
"&.	c #5293D7",
"*.	c #FAFAFA",
"=.	c #EAF0F9",
"-.	c #5C96F5",
";.	c #0E45AE",
">.	c #E4E4E4",
",.	c #E3E5E9",
"'.	c #00318A",
").	c #0051A9",
"!.	c #90B7E3",
"~.	c #E6EBF5",
"{.	c #5B90EB",
"].	c #4177D5",
"^.	c #96AED9",
"/.	c #93ABD5",
"(.	c #92A9D3",
"_.	c #8FA5CF",
":.	c #8DA3CC",
"<.	c #E3E3E3",
"[.	c #E2E4E8",
"}.	c #002E88",
"|.	c #014FA8",
"1.	c #94B7E1",
"2.	c #EBEDF2",
"3.	c #6E99E3",
"4.	c #5180D4",
"5.	c #EBEBEB",
"6.	c #EEEEEE",
"7.	c #ECECEC",
"8.	c #E9E9E9",
"9.	c #E6E6E6",
"0.	c #E2E4E9",
"a.	c #002D86",
"b.	c #014CA5",
"c.	c #7FA7D9",
"d.	c #F3F3F4",
"e.	c #EEEEEF",
"f.	c #8FADE0",
"g.	c #2461CD",
"h.	c #4D7BCE",
"i.	c #B8C8E1",
"j.	c #4170BB",
"k.	c #416EB9",
"l.	c #416CB7",
"m.	c #406AB5",
"n.	c #4068B3",
"o.	c #4066B1",
"p.	c #3C62AF",
"q.	c #002A7C",
"r.	c #004195",
"s.	c #5286CA",
"t.	c #ECEEF1",
"u.	c #BDCBE2",
"v.	c #658ACF",
"w.	c #A2B7D9",
"x.	c #002F7B",
"y.	c #2662B7",
"z.	c #C9D5E7",
"A.	c #E6E7E7",
"B.	c #A1B5D7",
"C.	c #06439D",
"D.	c #83A2D1",
"E.	c #ECEDED",
"F.	c #A1B5D6",
"G.	c #003487",
"H.	c #3B69B5",
"I.	c #D4DAE6",
"J.	c #9EB1D4",
"K.	c #0A3C97",
"L.	c #436BB4",
"                                                ",
"                                                ",
"                        . +                     ",
"                      @ # $                     ",
"                  % & * = -                     ",
"                ; > , ' ) !                     ",
"              ~ { ] ^ / ( _ :                   ",
"          < [ } * | 1 2 3 4 5 6 7 8 9 0 a b     ",
"        c d e f g h i j k k l l m m n o p q     ",
"      r s e t u h i v w x y z A B C D E F G     ",
"      ~ e t H h i v I J K L M N O P Q R S T     ",
"    U V ] W h i v I J K L M N O P Q X Y Z `     ",
"     ...= +.i v I J K L M N O P Q X @.#.$.%.    ",
"      &.*.=.-.I J K L M N O P Q X @.;.>.,.'.    ",
"      ).!.( ~.{.K L M ].C D ^./.(._.:.<.[.}.    ",
"        |.1.3 2.3.M N 4.5.6.7.5.E 8.Y 9.0.a.    ",
"          b.c.d.e.f.g.h.E i.j.k.l.m.n.o.p.q.    ",
"            r.s.t.6.u.v.R w.x.                  ",
"                y.z.7.A.Y B.                    ",
"                  C.D.E.#.F.                    ",
"                    G.H.I.J.                    ",
"                        K.L.                    ",
"                                                ",
"                                                "};
