/* XPM */
static char * reload_xpm[] = {
"24 24 186 2",
"  	c None",
". 	c #196D23",
"+ 	c #005C0C",
"@ 	c #78A97E",
"# 	c #ADCAB2",
"$ 	c #126421",
"% 	c #005C0B",
"& 	c #78A77F",
"* 	c #D4FFBE",
"= 	c #D8E9D7",
"- 	c #2B6F3C",
"; 	c #076C08",
"> 	c #48914A",
", 	c #82B384",
"' 	c #98BF9B",
") 	c #98BE9C",
"! 	c #98BD9C",
"~ 	c #98BD9D",
"{ 	c #98BC9E",
"] 	c #C7D9CA",
"^ 	c #ACF78B",
"/ 	c #9FF777",
"( 	c #E2F4DD",
"_ 	c #3C784E",
": 	c #006A00",
"< 	c #448F45",
"[ 	c #CFE4CD",
"} 	c #BBF0A9",
"| 	c #99EB7D",
"1 	c #8FEA70",
"2 	c #7CE757",
"3 	c #74E64D",
"4 	c #80E75C",
"5 	c #D9ECD5",
"6 	c #23643C",
"7 	c #569957",
"8 	c #CAEBC2",
"9 	c #6AD94D",
"0 	c #5ED73E",
"a 	c #5FD740",
"b 	c #C1EAB7",
"c 	c #487B5D",
"d 	c #277E28",
"e 	c #C9E3C4",
"f 	c #4DC936",
"g 	c #47C82F",
"h 	c #7BD46A",
"i 	c #BFE3B8",
"j 	c #CCE2CA",
"k 	c #C9E1C7",
"l 	c #D0E5CE",
"m 	c #72D260",
"n 	c #4CC935",
"o 	c #B5E1AD",
"p 	c #749A83",
"q 	c #004720",
"r 	c #006902",
"s 	c #9ABC9B",
"t 	c #5AC44E",
"u 	c #31BA21",
"v 	c #82CF79",
"w 	c #A1BEA4",
"x 	c #1F6F2A",
"y 	c #00590F",
"z 	c #005810",
"A 	c #005512",
"B 	c #005314",
"C 	c #005216",
"D 	c #6E987B",
"E 	c #77CC6D",
"F 	c #BCDCB9",
"G 	c #5F8A71",
"H 	c #004620",
"I 	c #07690A",
"J 	c #BDD7BC",
"K 	c #1AAA11",
"L 	c #2EB026",
"M 	c #B4C9B6",
"N 	c #056011",
"O 	c #6B9479",
"P 	c #CCD5CE",
"Q 	c #39704F",
"R 	c #207524",
"S 	c #CCD9CC",
"T 	c #A4CDA4",
"U 	c #B7D2B7",
"V 	c #64976B",
"W 	c #366F4B",
"X 	c #13552E",
"Y 	c #03640B",
"Z 	c #106A17",
"` 	c #10661A",
" .	c #10651B",
"..	c #055C13",
"+.	c #00491D",
"@.	c #064D22",
"#.	c #12542F",
"$.	c #125232",
"%.	c #125034",
"&.	c #034229",
"*.	c #166A21",
"=.	c #3E8249",
"-.	c #739A84",
";.	c #E9FCE1",
">.	c #DEFBD2",
",.	c #F5FEF1",
"'.	c #255A47",
").	c #005F09",
"!.	c #408549",
"~.	c #E4EFE5",
"{.	c #78A780",
"].	c #064B23",
"^.	c #CDDCD2",
"/.	c #81E95D",
"(.	c #75E74E",
"_.	c #E0F3DC",
":.	c #07412F",
"<.	c #005F08",
"[.	c #6BA072",
"}.	c #D9F5D1",
"|.	c #A0E98B",
"1.	c #78A582",
"2.	c #005117",
"3.	c #004E19",
"4.	c #004C1C",
"5.	c #23603F",
"6.	c #B2C7BC",
"7.	c #A4EA90",
"8.	c #65DC43",
"9.	c #88E46E",
"0.	c #A7BBB5",
"a.	c #00392D",
"b.	c #7DAB83",
"c.	c #BEEBB4",
"d.	c #5BD33E",
"e.	c #7FDB69",
"f.	c #DBEFD9",
"g.	c #D4E9D3",
"h.	c #D6EBD3",
"i.	c #C5EDBC",
"j.	c #7EDB69",
"k.	c #56D239",
"l.	c #5DD441",
"m.	c #D4ECD0",
"n.	c #26564C",
"o.	c #498951",
"p.	c #B8E4B1",
"q.	c #47C830",
"r.	c #46C82F",
"s.	c #56CC42",
"t.	c #C5E6BF",
"u.	c #557A72",
"v.	c #226F2F",
"w.	c #C7DDC5",
"x.	c #46C136",
"y.	c #36BD24",
"z.	c #41C030",
"A.	c #5AC64C",
"B.	c #6BCA5E",
"C.	c #9AD692",
"D.	c #C1D0C6",
"E.	c #3D675E",
"F.	c #00382F",
"G.	c #357643",
"H.	c #BFD6BE",
"I.	c #47BB3C",
"J.	c #5FC155",
"K.	c #B3C3B9",
"L.	c #88A594",
"M.	c #88A494",
"N.	c #88A496",
"O.	c #88A296",
"P.	c #87A196",
"Q.	c #749288",
"R.	c #3E695C",
"S.	c #053D30",
"T.	c #246838",
"U.	c #B4C7B7",
"V.	c #89C786",
"W.	c #688F77",
"X.	c #004820",
"Y.	c #105729",
"Z.	c #94AB9D",
"`.	c #678D77",
" +	c #00471F",
".+	c #155334",
"                                                ",
"                            . +                 ",
"                            @ # $               ",
"                          % & * = -             ",
"            ; > , ' ) ! ~ { ] ^ / ( _           ",
"        : < [ } | 1 1 1 1 1 1 2 3 4 5 6         ",
"        7 8 9 0 0 0 0 0 0 0 0 0 0 a b c         ",
"      d e f g h i j k k k k l m n o p q         ",
"    r s t u v w x y z A B C D E F G H           ",
"    I J K L M N             O P Q H             ",
"    R S T U V               W X                 ",
"    Y Z `  ...              +.                  ",
"                  +               @.#.$.%.&.    ",
"                *.=.              -.;.>.,.'.    ",
"            ).!.~.{.            ].^./.(._.:.    ",
"          <.[.}.|.1.B 2.3.4.+.5.6.7.8.9.0.a.    ",
"        ).b.c.d.e.f.g.g.g.g.h.i.j.k.l.m.n.      ",
"        o.p.q.r.r.r.r.r.r.r.r.r.r.s.t.u.        ",
"        v.w.x.y.z.A.A.A.A.A.A.B.C.D.E.F.        ",
"          G.H.I.J.K.L.M.N.O.P.Q.R.S.            ",
"            T.U.V.W.X.                          ",
"              Y.Z.`.                            ",
"                 +.+                            ",
"                                                "};
