/* XPM */
static char * right_xpm[] = {
"32 32 164 2",
"  	c None",
". 	c #5E7C31",
"+ 	c #5F7D32",
"@ 	c #5F7C32",
"# 	c #607D33",
"$ 	c #5F7B32",
"% 	c #658638",
"& 	c #E8F2DF",
"* 	c #D6E5C8",
"= 	c #6E8E45",
"- 	c #A9C78B",
"; 	c #FFFFFF",
"> 	c #F0F6EA",
", 	c #8AA965",
"' 	c #607E33",
") 	c #E8F2E0",
"! 	c #D8EAC9",
"~ 	c #8FC264",
"{ 	c #F0F7EA",
"] 	c #FDFEFC",
"^ 	c #ABC88F",
"/ 	c #5F7C33",
"( 	c #5E7C32",
"_ 	c #5F7C31",
": 	c #809A59",
"< 	c #A3CD7F",
"[ 	c #6FB037",
"} 	c #7BB747",
"| 	c #CEE2BC",
"1 	c #6A8B3C",
"2 	c #607C32",
"3 	c #607D32",
"4 	c #607F32",
"5 	c #ABC58F",
"6 	c #7FB94D",
"7 	c #71B139",
"8 	c #AED38F",
"9 	c #E6F1DC",
"0 	c #D2E6C0",
"a 	c #769B4A",
"b 	c #5F7D31",
"c 	c #749549",
"d 	c #CDE0BB",
"e 	c #F2F8EE",
"f 	c #F5F9F2",
"g 	c #F4F9F0",
"h 	c #ECF4E4",
"i 	c #E9F3E0",
"j 	c #E2EFD7",
"k 	c #EFF6E9",
"l 	c #EBF4E4",
"m 	c #8BBF5E",
"n 	c #C8E1B3",
"o 	c #C3DEAC",
"p 	c #7CA650",
"q 	c #618234",
"r 	c #DFEDD3",
"s 	c #FAFCF8",
"t 	c #C9E2B4",
"u 	c #C9E1B4",
"v 	c #C8E1B2",
"w 	c #C5DFAE",
"x 	c #C2DEAA",
"y 	c #BFDCA6",
"z 	c #BCDAA2",
"A 	c #BAD99F",
"B 	c #B7D79B",
"C 	c #A0CB7A",
"D 	c #7CB749",
"E 	c #ADD28D",
"F 	c #AFD390",
"G 	c #7FAC52",
"H 	c #8DAF68",
"I 	c #9ECA79",
"J 	c #6EAF36",
"K 	c #6EAE36",
"L 	c #6DAE36",
"M 	c #72B13D",
"N 	c #93C36A",
"O 	c #96C56F",
"P 	c #79A94B",
"Q 	c #B1CD96",
"R 	c #D2E6C1",
"S 	c #6EAD37",
"T 	c #6CAC35",
"U 	c #6CAB35",
"V 	c #6BAB35",
"W 	c #6BAA35",
"X 	c #6CAB37",
"Y 	c #7BB349",
"Z 	c #7CB44B",
"` 	c #6C9C39",
" .	c #B3CF99",
"..	c #B0D194",
"+.	c #6AA834",
"@.	c #69A834",
"#.	c #69A734",
"$.	c #69A733",
"%.	c #69A633",
"&.	c #648D32",
"*.	c #A7C889",
"=.	c #99C275",
"-.	c #68A533",
";.	c #67A432",
">.	c #67A332",
",.	c #66A332",
"'.	c #649632",
").	c #8FB66A",
"!.	c #8AB762",
"~.	c #65A131",
"{.	c #65A031",
"].	c #64A031",
"^.	c #649F31",
"/.	c #649D31",
"(.	c #608032",
"_.	c #607C33",
":.	c #75A149",
"<.	c #7DAE52",
"[.	c #649E31",
"}.	c #639E30",
"|.	c #639D30",
"1.	c #629D30",
"2.	c #629C30",
"3.	c #629C2F",
"4.	c #629B2F",
"5.	c #608531",
"6.	c #5F7B31",
"7.	c #628A34",
"8.	c #669D36",
"9.	c #629A30",
"0.	c #619A2F",
"a.	c #60992E",
"b.	c #60982E",
"c.	c #60972F",
"d.	c #5F8531",
"e.	c #5E7D31",
"f.	c #5F942D",
"g.	c #5F962D",
"h.	c #5E962D",
"i.	c #5E952D",
"j.	c #5D942E",
"k.	c #5E8331",
"l.	c #5E8031",
"m.	c #5E882F",
"n.	c #5D8A2E",
"o.	c #5D8A2F",
"p.	c #5C912D",
"q.	c #5C922C",
"r.	c #5B922C",
"s.	c #5B912C",
"t.	c #5B8E2C",
"u.	c #5E7F31",
"v.	c #5E8130",
"w.	c #5A8F2B",
"x.	c #5B8B2D",
"y.	c #5F7E32",
"z.	c #5D862F",
"A.	c #5B8D2C",
"B.	c #5B8D2B",
"C.	c #5C862E",
"D.	c #5B8B2C",
"E.	c #5E7E31",
"F.	c #5B8A2D",
"G.	c #5D852F",
"                                                                ",
"                                                                ",
"                                                                ",
"                              . + @                             ",
"                            # @ @ @ @ $                         ",
"                            @ % & * = @ +                       ",
"                            @ - ; ; > , @ +                     ",
"                          @ ' ) ! ~ { ] ^ ' @ /                 ",
"          $ ( @ @ _ @ + $ @ : ; < [ } ! ; | 1 @ +               ",
"      2 @ @ @ @ @ @ @ @ 3 4 5 ; 6 [ [ 7 8 9 0 a @ .             ",
"    b @ c d e f f g h i 9 j k l [ [ [ [ [ m n o p @ _           ",
"    2 q r s t u v w x y z A B C [ [ [ [ [ [ D E F G + $         ",
"    @ H { I J J J J J J J J J K K K K K K K L M N O P + (       ",
"  ( @ Q R S T T T T U U U U U U U V V V W W W W X Y Z ` @ (     ",
"  @ @  ...+.+.+.+.+.+.+.@.@.@.#.#.$.$.$.$.$.$.$.%.%.%.%.&.@     ",
"  . @ *.=.-.-.-.;.;.;.;.;.;.;.;.;.;.;.>.>.>.>.>.>.,.,.,.'.@ .   ",
"  ( @ ).!.~.~.~.~.~.~.~.~.{.{.{.{.{.{.{.].].].].^.^.^./.(.@     ",
"  _.@ :.<.[.}.|.|.|.|.|.|.|.|.|.1.1.2.2.3.3.3.3.3.3.4.5.@ 6.    ",
"    @ 7.8.9.0.0.0.0.0.a.a.a.a.a.a.a.a.a.a.a.b.b.b.c.d.@ @       ",
"    e.e.f.g.g.g.h.h.h.h.h.h.h.h.i.i.i.i.i.i.i.i.j.k.@ @         ",
"      @ l.m.n.n.n.o.n.n.n.n.p.q.q.q.q.r.r.s.s.t.u.@ @           ",
"      + $ @ @ @ @ @ @ @ @ @ v.w.w.w.w.w.w.w.x.b @ @             ",
"                        _.@ y.w.w.w.w.w.w.z._ @                 ",
"                          @ _ A.w.w.w.B.v.@ b                   ",
"                            @ C.w.w.D.E.@ @                     ",
"                            @ e.F.G.@ @ @                       ",
"                              @ @ @ (                           ",
"                                + (                             ",
"                                                                ",
"                                                                ",
"                                                                ",
"                                                                "};
