/* XPM */
static char * Save_picture_xpm[] = {
"24 24 262 2",
"  	c None",
". 	c #4B698E",
"+ 	c #3F5776",
"@ 	c #B5D4F3",
"# 	c #B5D2F1",
"$ 	c #2E4057",
"% 	c #BCDCFD",
"& 	c #77B8FC",
"* 	c #C4DFFC",
"= 	c #72B3F8",
"- 	c #78B5F7",
"; 	c #71B2F8",
"> 	c #77B5F8",
", 	c #B6D8F6",
"' 	c #C9E4F9",
") 	c #D0E3F9",
"! 	c #CFE4FB",
"~ 	c #A8CDF7",
"{ 	c #D6E4F9",
"] 	c #BED7F6",
"^ 	c #96C3F5",
"/ 	c #85BAF5",
"( 	c #86BBF5",
"_ 	c #8ABDF5",
": 	c #95C1F2",
"< 	c #98BFEF",
"[ 	c #91BEF3",
"} 	c #92C0F4",
"| 	c #91C0F5",
"1 	c #DDEDFA",
"2 	c #E1EFFC",
"3 	c #EAF2FC",
"4 	c #D4E5FA",
"5 	c #BFD8F6",
"6 	c #DFEAFA",
"7 	c #DBE8FA",
"8 	c #D6E3F7",
"9 	c #A5C8F3",
"0 	c #98C1F3",
"a 	c #98C1F2",
"b 	c #9DBFED",
"c 	c #B5CEF0",
"d 	c #D0E1F7",
"e 	c #CADCF5",
"f 	c #C9DAF2",
"g 	c #C5D7F2",
"h 	c #B9D2F3",
"i 	c #A4C5EF",
"j 	c #A0C5F2",
"k 	c #ABCDF5",
"l 	c #9DC5F3",
"m 	c #C8DDF5",
"n 	c #DAEAFA",
"o 	c #ECF3FC",
"p 	c #E0EBF9",
"q 	c #CEDFF5",
"r 	c #E0EAF7",
"s 	c #E5EDF9",
"t 	c #E4ECF8",
"u 	c #C7DAF3",
"v 	c #ABC8EF",
"w 	c #B1C8EC",
"x 	c #C9D5EE",
"y 	c #D4E0F4",
"z 	c #D8E5F7",
"A 	c #D6E3F6",
"B 	c #D7E4F6",
"C 	c #DBE7F8",
"D 	c #D2DFF5",
"E 	c #D1DFF4",
"F 	c #CDDCF2",
"G 	c #C4D5EF",
"H 	c #C5D6F0",
"I 	c #D7E3F5",
"J 	c #C8D7EF",
"K 	c #E7EDF8",
"L 	c #EEF3FA",
"M 	c #DBE4F4",
"N 	c #D9E3F4",
"O 	c #DCE5F4",
"P 	c #DCE5F5",
"Q 	c #BDCCEA",
"R 	c #BCC9E6",
"S 	c #CBD5ED",
"T 	c #D5DFF2",
"U 	c #D3DEF1",
"V 	c #D0DBF0",
"W 	c #CED9EF",
"X 	c #CFD9EF",
"Y 	c #D4DEF2",
"Z 	c #D3DEF2",
"` 	c #D5E0F2",
" .	c #CDD8EE",
"..	c #E7ECF6",
"+.	c #E5EBF7",
"@.	c #C4D0EC",
"#.	c #C0CEEB",
"$.	c #C3CFEB",
"%.	c #CAD3EB",
"&.	c #D8DFF1",
"*.	c #C3C9E5",
"=.	c #BFC6E3",
"-.	c #C4CEE9",
";.	c #BFCBE8",
">.	c #A4B4D4",
",.	c #90A1C2",
"'.	c #BDCAE7",
").	c #C2CAE6",
"!.	c #C6CCE6",
"~.	c #C2C9E4",
"{.	c #C7CFE9",
"].	c #C6CFE9",
"^.	c #C5CFE9",
"/.	c #C7D0E9",
"(.	c #E5EAF5",
"_.	c #B4BBCA",
":.	c #506184",
"<.	c #4C5D80",
"[.	c #607094",
"}.	c #7281A7",
"|.	c #6C7B9C",
"1.	c #717FAA",
"2.	c #7783B0",
"3.	c #59678E",
"4.	c #536388",
"5.	c #4B5C7E",
"6.	c #556689",
"7.	c #7583AA",
"8.	c #808DB8",
"9.	c #8592BC",
"0.	c #7584AB",
"a.	c #7683AB",
"b.	c #7886AC",
"c.	c #BFC6D5",
"d.	c #B0B6C5",
"e.	c #424E73",
"f.	c #445474",
"g.	c #415071",
"h.	c #455778",
"i.	c #3E4D6E",
"j.	c #3D4C6D",
"k.	c #425373",
"l.	c #445575",
"m.	c #465676",
"n.	c #475777",
"o.	c #465575",
"p.	c #455575",
"q.	c #48597A",
"r.	c #455574",
"s.	c #425370",
"t.	c #A9B2BA",
"u.	c #AAADBE",
"v.	c #353D64",
"w.	c #364065",
"x.	c #343D62",
"y.	c #343E62",
"z.	c #374364",
"A.	c #364363",
"B.	c #344161",
"C.	c #33405E",
"D.	c #3B4A68",
"E.	c #3B4B68",
"F.	c #3A4A66",
"G.	c #384863",
"H.	c #354660",
"I.	c #2E4056",
"J.	c #304258",
"K.	c #34465E",
"L.	c #2E4256",
"M.	c #314459",
"N.	c #2B4150",
"O.	c #2A414F",
"P.	c #A6AFB5",
"Q.	c #BAD0DD",
"R.	c #5C8FAF",
"S.	c #5E90B0",
"T.	c #5F91B0",
"U.	c #5B8EAD",
"V.	c #578BAA",
"W.	c #568AA9",
"X.	c #588BAA",
"Y.	c #5387A6",
"Z.	c #4D83A3",
"`.	c #4A80A1",
" +	c #4D82A1",
".+	c #4A7FA0",
"++	c #487E9E",
"@+	c #447A9B",
"#+	c #407798",
"$+	c #3C7495",
"%+	c #3E7696",
"&+	c #ADC4D2",
"*+	c #B8CEDC",
"=+	c #5488A9",
"-+	c #5287A8",
";+	c #5185A7",
">+	c #5084A6",
",+	c #4E83A5",
"'+	c #4B81A4",
")+	c #4F84A6",
"!+	c #4D82A4",
"~+	c #4B81A2",
"{+	c #487EA0",
"]+	c #467D9F",
"^+	c #447B9D",
"/+	c #41789A",
"(+	c #42799A",
"_+	c #3E7597",
":+	c #3A7294",
"<+	c #3B7394",
"[+	c #ACC4D1",
"}+	c #B6CCDA",
"|+	c #5287A7",
"1+	c #5589A9",
"2+	c #578AAA",
"3+	c #5387A8",
"4+	c #5386A7",
"5+	c #5488A8",
"6+	c #5488A7",
"7+	c #5185A5",
"8+	c #4E84A4",
"9+	c #4C82A3",
"0+	c #4980A0",
"a+	c #487F9F",
"b+	c #477D9E",
"c+	c #447C9C",
"d+	c #3F7698",
"e+	c #3C7395",
"f+	c #386F92",
"g+	c #376F92",
"h+	c #AAC2D0",
"i+	c #B5CCD9",
"j+	c #5487A7",
"k+	c #5588A7",
"l+	c #5386A6",
"m+	c #4E82A3",
"n+	c #4F84A4",
"o+	c #5486A6",
"p+	c #4D82A2",
"q+	c #417799",
"r+	c #3F7597",
"s+	c #3F7596",
"t+	c #3E7395",
"u+	c #356D90",
"v+	c #B4CAD8",
"w+	c #B5CBD8",
"x+	c #B5CBD9",
"y+	c #B6CCD9",
"z+	c #B7CCD9",
"A+	c #B7CCDA",
"B+	c #B5CAD8",
"C+	c #B3CAD7",
"D+	c #B3C9D7",
"E+	c #B3C9D6",
"F+	c #B0C7D5",
"G+	c #B1C8D5",
"H+	c #B0C6D4",
"I+	c #AEC5D3",
"J+	c #ADC5D2",
"K+	c #ABC3D1",
"L+	c #ACC3D1",
"M+	c #364B66",
"                                                ",
"                                                ",
"                                                ",
". . . . . . . . . . . . . . . . . . . . . . . + ",
". @ @ @ @ @ @ @ @ @ @ @ @ @ @ @ @ @ @ @ @ @ # $ ",
". % & & & & & & & & & & & & & & & & & & & & % $ ",
". * = - ; = = = = = = = = = = = = = = > , ' ) $ ",
". ! ~ { ] ^ / / / ( _ : < [ } / / / / | 1 2 3 $ ",
". 4 5 6 7 8 9 0 a b c d e f g h i j k l m n o $ ",
". p q r s t u v w x y z A B C D E F G H I J K $ ",
". L M N O O P Q R S T U V W X W T U Y Z `  ...$ ",
". +.@.#.$.%.&.*.=.-.;.>.,.'.).!.*.~.{.].^./.(.$ ",
". _.:.<.[.}.|.1.2.3.4.<.5.6.7.8.9.0.0.7.a.b.c.$ ",
". d.e.f.g.h.i.j.k.l.m.m.f.n.f.o.f.p.q.p.r.s.t.$ ",
". u.v.w.x.y.z.A.B.C.D.E.F.G.H.I.J.K.L.M.N.O.P.$ ",
". Q.R.R.R.R.S.T.U.V.W.X.Y.Z.`. +.+++@+#+$+%+&+$ ",
". *+=+-+;+>+,+'+)+!+~+`.{+{+]+^+/+(+(+_+:+<+[+$ ",
". }+|+1+2+3+4+5+6+7+8+9+0+a+b+c+(+d+e+:+f+g+h+$ ",
". i+j+k+l+7+m+n+Y.k+o+p+++@+q+q+r+_+$+s+t+u+h+$ ",
". v+w+x+y+y+z+A+B+C+w+D+D+E+F+G+H+I+J+K+h+K+L+$ ",
"M+$ $ $ $ $ $ $ $ $ $ $ $ $ $ $ $ $ $ $ $ $ $ $ ",
"                                                ",
"                                                ",
"                                                "};
