/* XPM */
static char * up_xpm[] = {
"32 32 192 2",
"  	c None",
". 	c #5F7C32",
"+ 	c #5E7C32",
"@ 	c #5F7B32",
"# 	c #5F7D32",
"$ 	c #68913A",
"% 	c #648936",
"& 	c #607E32",
"* 	c #ACCA8F",
"= 	c #F2F8ED",
"- 	c #E9F3E0",
"; 	c #95B474",
"> 	c #5E7D32",
", 	c #618133",
"' 	c #BFD8A7",
") 	c #F7FAF3",
"! 	c #CEE4BB",
"~ 	c #D2E6C0",
"{ 	c #E5F1DC",
"] 	c #9FBD7F",
"^ 	c #5F7C31",
"/ 	c #5F8032",
"( 	c #B6D39C",
"_ 	c #F3F8EE",
": 	c #BCDAA2",
"< 	c #70B038",
"[ 	c #72B03C",
"} 	c #BBD9A2",
"| 	c #D6E8C8",
"1 	c #90B16D",
"2 	c #A3C682",
"3 	c #EFF6E8",
"4 	c #BEDBA5",
"5 	c #6FAF37",
"6 	c #6DAD36",
"7 	c #6CAB35",
"8 	c #6DAA37",
"9 	c #B3D398",
"0 	c #C5DDB1",
"a 	c #7EA257",
"b 	c #607C32",
"c 	c #5F7D33",
"d 	c #91B56C",
"e 	c #EAF3E1",
"f 	c #CBE2B7",
"g 	c #71B03A",
"h 	c #6CAC35",
"i 	c #6BAA35",
"j 	c #6AA934",
"k 	c #69A733",
"l 	c #6DA83A",
"m 	c #ADCE90",
"n 	c #B3D099",
"o 	c #729347",
"p 	c #7DA152",
"q 	c #E2EFD7",
"r 	c #D1E6BF",
"s 	c #76B243",
"t 	c #6BAA34",
"u 	c #6AA834",
"v 	c #69A633",
"w 	c #68A533",
"x 	c #67A332",
"y 	c #70A840",
"z 	c #A4C787",
"A 	c #9EC17E",
"B 	c #66863B",
"C 	c #698A3C",
"D 	c #D2E6C1",
"E 	c #D5E8C5",
"F 	c #7CB54A",
"G 	c #69A834",
"H 	c #68A633",
"I 	c #67A432",
"J 	c #66A232",
"K 	c #65A131",
"L 	c #649F30",
"M 	c #70A542",
"N 	c #98BE76",
"O 	c #88AE62",
"P 	c #607E33",
"Q 	c #BAD6A0",
"R 	c #D9EACB",
"S 	c #8ABD5E",
"T 	c #66A231",
"U 	c #65A031",
"V 	c #649E30",
"W 	c #629D30",
"X 	c #619B2F",
"Y 	c #73A547",
"Z 	c #87B162",
"` 	c #719947",
" .	c #9ABC79",
"..	c #D6E8C6",
"+.	c #A0C97C",
"@.	c #66A332",
"#.	c #649F31",
"$.	c #639E30",
"%.	c #629C2F",
"&.	c #619A2F",
"*.	c #60992E",
"=.	c #5F972E",
"-.	c #72A247",
";.	c #75A34B",
">.	c #638837",
",.	c #5E7C31",
"'.	c #7FA056",
").	c #D0E5BE",
"!.	c #B3D496",
"~.	c #6BAA36",
"{.	c #69A734",
"].	c #639D30",
"^.	c #629B2F",
"/.	c #5F982E",
"(.	c #5E962D",
"_.	c #5D942D",
":.	c #5D932D",
"<.	c #67993A",
"[.	c #619334",
"}.	c #5E7F31",
"|.	c #68883E",
"1.	c #C4DDAF",
"2.	c #BFDAA8",
"3.	c #72AC3E",
"4.	c #629C30",
"5.	c #5D942C",
"6.	c #5C922C",
"7.	c #5B902B",
"8.	c #5B8F2C",
"9.	c #5A8F2B",
"0.	c #5B8B2C",
"a.	c #89A864",
"b.	c #C4DDAE",
"c.	c #BCD8A4",
"d.	c #7DB24E",
"e.	c #68A534",
"f.	c #60982E",
"g.	c #5F972D",
"h.	c #5E952D",
"i.	c #5C932C",
"j.	c #5B912C",
"k.	c #5A902B",
"l.	c #608033",
"m.	c #87AE60",
"n.	c #ABCD8D",
"o.	c #A3C784",
"p.	c #92BC6D",
"q.	c #84B35A",
"r.	c #659F33",
"s.	c #5C912C",
"t.	c #5A8E2B",
"u.	c #5C882E",
"v.	c #5F7D31",
"w.	c #608233",
"x.	c #74974A",
"y.	c #84A75D",
"z.	c #95BB72",
"A.	c #8EB86A",
"B.	c #6AA03A",
"C.	c #5A8B2D",
"D.	c #5C852F",
"E.	c #5E8230",
"F.	c #5E7D31",
"G.	c #5E7C33",
"H.	c #6D963F",
"I.	c #83B05C",
"J.	c #679C37",
"K.	c #5F962D",
"L.	c #5D8130",
"M.	c #6A923E",
"N.	c #77A84E",
"O.	c #629933",
"P.	c #5B912B",
"Q.	c #5E8130",
"R.	c #668D39",
"S.	c #6C9E3F",
"T.	c #5F952E",
"U.	c #5E8030",
"V.	c #628935",
"W.	c #609631",
"X.	c #5E852F",
"Y.	c #5D832F",
"Z.	c #5D822F",
"`.	c #5F7E31",
" +	c #5E7B31",
".+	c #5B8C2C",
"++	c #5C862F",
"@+	c #5A8C2B",
"#+	c #5B8D2C",
"$+	c #5D862F",
"%+	c #5E7E31",
"&+	c #5F7C33",
"                                                                ",
"                            . . . +                             ",
"                          @ # $ % . @                           ",
"                        . & * = - ; . >                         ",
"                      . , ' ) ! ~ { ] . >                       ",
"                    ^ / ( _ : < [ } | 1 . @                     ",
"                  > # 2 3 4 5 6 7 8 9 0 a . b                   ",
"                c . d e f g h i j k l m n o . @                 ",
"              . . p q r s h t u v w x y z A B .                 ",
"              . C D E F 7 j G H I J K L M N O P +               ",
"            # P Q R S i j k w I T U V W X Y Z ` . #             ",
"          + .  ...+.t u v w @.K #.$.%.&.*.=.-.;.>.. ,.          ",
"        + . '.).!.~.{.H I J K L ].^.&./.(._.:.<.[.}..           ",
"        . |.1.2.3.k w x T U $.4.X *.=.(.5.6.7.8.9.0.. .         ",
"        . a.b.c.d.e.@.K #.$.%.&.f.g.h.i.j.k.9.9.9.9.}..         ",
"        + l.m.n.m o.p.q.r.^.*./.(._.i.s.8.9.9.9.t.u.. v.        ",
"          @ . w.x.y.z.A.B.*.=.h.5.6.7.9.9.C.D.E.F.. #           ",
"            G.b . . H.I.J.K.h.i.j.k.9.9.9.L.. . ,.#             ",
"                v.. M.N.O._.6.P.9.9.9.9.9.Q..                   ",
"                  . R.S.T.6.k.9.9.9.9.9.9.U..                   ",
"                  . V.W.P.9.9.9.9.9.9.9.9.}..                   ",
"                  . X.P.9.9.9.9.9.9.9.9.9.}..                   ",
"                  . Y.9.9.9.9.9.9.9.9.9.9.}..                   ",
"                  . Z.9.9.9.9.9.9.9.9.9.9.}..                   ",
"                  . E.9.9.9.9.9.9.9.9.9.9.`..                   ",
"                  . L.9.9.9.9.9.9.9.9.9.9.F. +                  ",
"                  . ^ .+9.9.9.9.9.9.9.9.0.. .                   ",
"                    . # ++@+9.9.9.9.#+$+. .                     ",
"                      . . . ^ }.%++ . . .                       ",
"                          # &+. . . #                           ",
"                                                                ",
"                                                                "};
