/* XPM */
static char * zoom_out_xpm[] = {
"24 24 242 2",
"  	c None",
". 	c #676767",
"+ 	c #6B6B6B",
"@ 	c #717171",
"# 	c #A9A9A9",
"$ 	c #C9C9C9",
"% 	c #C6C7C9",
"& 	c #B8BAC1",
"* 	c #B9B9B9",
"= 	c #A7A7A7",
"- 	c #6D6D6D",
"; 	c #929292",
"> 	c #D2D4D7",
", 	c #8CA3DE",
"' 	c #7E9DF0",
") 	c #96B1F9",
"! 	c #9AB3F9",
"~ 	c #83A3F4",
"{ 	c #6887D6",
"] 	c #8C94A9",
"^ 	c #979797",
"/ 	c #949494",
"( 	c #CFD4E0",
"_ 	c #7EA4F3",
": 	c #C4DEFE",
"< 	c #D6EAFF",
"[ 	c #DAECFF",
"} 	c #D8EBFF",
"| 	c #D2E8FF",
"1 	c #C8E4FF",
"2 	c #91B8FA",
"3 	c #6B7FAB",
"4 	c #707070",
"5 	c #D8DADD",
"6 	c #83ADF7",
"7 	c #B9DBFF",
"8 	c #C2E1FF",
"9 	c #CBE5FF",
"0 	c #CAE4FF",
"a 	c #C5E2FF",
"b 	c #BDDEFF",
"c 	c #B4D9FF",
"d 	c #92BFFC",
"e 	c #707F9D",
"f 	c #AFAFAF",
"g 	c #B0C8F3",
"h 	c #A0CEFE",
"i 	c #AED7FF",
"j 	c #B5DAFF",
"k 	c #BADDFF",
"l 	c #BCDEFF",
"m 	c #BCDDFF",
"n 	c #B8DCFF",
"o 	c #B2D8FF",
"p 	c #A9D4FF",
"q 	c #9FCFFF",
"r 	c #75A6EE",
"s 	c #8F9091",
"t 	c #1F1F1F",
"u 	c #D7D7D7",
"v 	c #8CBAFA",
"w 	c #9ACDFF",
"x 	c #A2D1FF",
"y 	c #A8D4FF",
"z 	c #ACD6FF",
"A 	c #ADD6FF",
"B 	c #AAD5FF",
"C 	c #A5D2FF",
"D 	c #9ECEFF",
"E 	c #95CAFF",
"F 	c #99C9FE",
"G 	c #728095",
"H 	c #4E4E4E",
"I 	c #616161",
"J 	c #E0E1E2",
"K 	c #94C4FD",
"L 	c #9CCEFF",
"M 	c #9ECFFF",
"N 	c #A0D0FF",
"O 	c #97CBFF",
"P 	c #97CCFF",
"Q 	c #A3D2FF",
"R 	c #B0D9FF",
"S 	c #728BAC",
"T 	c #636363",
"U 	c #DEE0E3",
"V 	c #A6CFFE",
"W 	c #AFD8FF",
"X 	c #A5D3FF",
"Y 	c #99CDFF",
"Z 	c #98CCFF",
"` 	c #AAD6FF",
" .	c #B5DBFF",
"..	c #C1E1FF",
"+.	c #7994B5",
"@.	c #AFD5FE",
"#.	c #C1E2FF",
"$.	c #B9DDFF",
"%.	c #B3DAFF",
"&.	c #AED8FF",
"*.	c #ADD7FF",
"=.	c #B1D9FF",
"-.	c #B6DCFF",
";.	c #BEE0FF",
">.	c #C7E5FF",
",.	c #C8E5FF",
"'.	c #75899D",
").	c #555555",
"!.	c #B7B7B7",
"~.	c #BCDCFA",
"{.	c #CDE8FF",
"].	c #CAE6FF",
"^.	c #C4E3FF",
"/.	c #C2E2FF",
"(.	c #C3E2FF",
"_.	c #C6E4FF",
":.	c #C9E6FF",
"<.	c #CCE7FF",
"[.	c #CFE9FF",
"}.	c #BDDDFD",
"|.	c #7A7E82",
"1.	c #343434",
"2.	c #898989",
"3.	c #D2D8DF",
"4.	c #D2EAFF",
"5.	c #D0E9FF",
"6.	c #CFE8FF",
"7.	c #CEE8FF",
"8.	c #D1EAFF",
"9.	c #D3EBFF",
"0.	c #D4EBFF",
"a.	c #93ACC5",
"b.	c #7D7D7D",
"c.	c #ACACAC",
"d.	c #CCDBE9",
"e.	c #D8EDFF",
"f.	c #D7ECFF",
"g.	c #D6ECFF",
"h.	c #D9EDFF",
"i.	c #B1CCE8",
"j.	c #888A8B",
"k.	c #3F3F3F",
"l.	c #ABABAB",
"m.	c #C6D1DA",
"n.	c #CAE2FB",
"o.	c #DEF0FF",
"p.	c #DFF0FF",
"q.	c #DDEFFF",
"r.	c #D1E9FE",
"s.	c #A8BCCE",
"t.	c #8D8E8F",
"u.	c #B0B0B0",
"v.	c #B6B4B4",
"w.	c #AC2A28",
"x.	c #909090",
"y.	c #AFB0B0",
"z.	c #B7BEC5",
"A.	c #B9C7D4",
"B.	c #B7C7D4",
"C.	c #A7B3BD",
"D.	c #939698",
"E.	c #868686",
"F.	c #505050",
"G.	c #8C8888",
"H.	c #C3C3C3",
"I.	c #E5E0C5",
"J.	c #EFA744",
"K.	c #666666",
"L.	c #848484",
"M.	c #828282",
"N.	c #757575",
"O.	c #5E5E5E",
"P.	c #A53432",
"Q.	c #D5CEA8",
"R.	c #F0D267",
"S.	c #FFE151",
"T.	c #E99A41",
"U.	c #E45E10",
"V.	c #FF8813",
"W.	c #FFB432",
"X.	c #FFE152",
"Y.	c #E69A41",
"Z.	c #4F9352",
"`.	c #B8D3BA",
" +	c #BBD4BE",
".+	c #BBD3BF",
"++	c #BBD2C0",
"@+	c #BBD1C0",
"#+	c #BBD0C1",
"$+	c #BBD0C2",
"%+	c #B6CBBE",
"&+	c #4C7D63",
"*+	c #DB4302",
"=+	c #FF8713",
"-+	c #E39A41",
";+	c #B2D0B4",
">+	c #68AE68",
",+	c #3C993C",
"'+	c #3E9D3E",
")+	c #41A241",
"!+	c #43A743",
"~+	c #45AC45",
"{+	c #48B048",
"]+	c #7FCA7F",
"^+	c #A4BDAF",
"/+	c #D84302",
"(+	c #DF983E",
"_+	c #B4D1B5",
":+	c #429942",
"<+	c #0B800B",
"[+	c #0E850E",
"}+	c #118B11",
"|+	c #149114",
"1+	c #179717",
"2+	c #1A9C1A",
"3+	c #5FBD5F",
"4+	c #A5BEB0",
"5+	c #D54302",
"6+	c #FED950",
"7+	c #AFCEB1",
"8+	c #81BB81",
"9+	c #5CAA5C",
"0+	c #5EAE5E",
"a+	c #60B260",
"b+	c #62B662",
"c+	c #64BA64",
"d+	c #66BD66",
"e+	c #95D395",
"f+	c #9FBAAB",
"g+	c #D04302",
"h+	c #FE8614",
"i+	c #CF631C",
"j+	c #458D49",
"k+	c #97BE9A",
"l+	c #99BE9D",
"m+	c #99BD9F",
"n+	c #99BCA0",
"o+	c #99BAA1",
"p+	c #99B9A2",
"q+	c #99B8A3",
"r+	c #94B3A0",
"s+	c #387052",
"                                                ",
"                . +                             ",
"          @ # $ % & * = -                       ",
"        ; > , ' ) ! ~ { ] ^                     ",
"      / ( _ : < [ } | 1 2 3 ^                   ",
"    4 5 6 7 8 1 9 0 a b c d e 4                 ",
"    f g h i j k l m n o p q r s t               ",
"    u v w x y z i A B C D E F G H               ",
"  I J K L E w M N q L O P Q R S T               ",
"  . U V W X M Y P Z L x `  ...+.T               ",
"    u @.#.$.%.&.*.*.=.-.;.>.,.'.).              ",
"    !.~.{.].>.^./.(._.:.<.[.}.|.1.              ",
"    2.3.(.4.5.6.7.7.[.8.9.0.a.b.                ",
"      c.d.6.e.f.g.g.f.h.e.i.j.k.                ",
"        l.m.n.h.o.p.q.r.s.t.u.v.w.              ",
"          x.y.z.A.B.C.D.E.F.G.H.I.J.            ",
"            K.b.L.M.N.O.    P.Q.R.S.T.          ",
"                              U.V.W.X.Y.        ",
"      Z.`. +.+++@+#+$+%+&+      *+=+W.X.-+      ",
"      ;+>+,+'+)+!+~+{+]+^+        /+=+W.X.(+    ",
"      _+:+<+[+}+|+1+2+3+4+          5+=+W.6+    ",
"      7+8+9+0+a+b+c+d+e+f+            g+h+i+    ",
"      j+k+l+m+n+o+p+q+r+s+                      ",
"                                                "};
