/* XPM */
static char * zoom_vertex_xpm[] = {
"24 24 202 2",
"  	c None",
". 	c #09442F",
"+ 	c #094330",
"@ 	c #1D563F",
"# 	c #CCD9D4",
"$ 	c #CBD8D3",
"% 	c #1D5342",
"& 	c #004D1A",
"* 	c #004B1C",
"= 	c #00491D",
"- 	c #326A4D",
"; 	c #E5EBE9",
"> 	c #F6FCF5",
", 	c #F4FAF2",
"' 	c #E3EAE7",
") 	c #316153",
"! 	c #004E19",
"~ 	c #004B1B",
"{ 	c #4E8064",
"] 	c #F5F7F6",
"^ 	c #ECFAE8",
"/ 	c #7EE062",
"( 	c #79DD5F",
"_ 	c #E7F6E4",
": 	c #F1F4F3",
"< 	c #4C7569",
"[ 	c #005017",
"} 	c #749D83",
"| 	c #FCFDFC",
"1 	c #DEF7D7",
"2 	c #72DE54",
"3 	c #5DD73E",
"4 	c #57D33A",
"5 	c #60D348",
"6 	c #D3EECE",
"7 	c #F7F7F7",
"8 	c #719288",
"9 	c #00392A",
"0 	c #005215",
"a 	c #05531C",
"b 	c #9AB9A4",
"c 	c #FEFEFE",
"d 	c #CCF3C0",
"e 	c #69DC49",
"f 	c #51CF36",
"g 	c #4CCC33",
"h 	c #4DCA36",
"i 	c #B9E4B1",
"j 	c #F5F5F5",
"k 	c #97AFA7",
"l 	c #073F30",
"m 	c #115F24",
"n 	c #BDD2C2",
"o 	c #FEFFFE",
"p 	c #B4EEA3",
"q 	c #64DB43",
"r 	c #46C82F",
"s 	c #41C42B",
"t 	c #3CC028",
"u 	c #95D78C",
"v 	c #F2F3F2",
"w 	c #B8C7C2",
"x 	c #13483B",
"y 	c #277136",
"z 	c #D9E5DC",
"A 	c #FBFEFA",
"B 	c #9EEA88",
"C 	c #63DB42",
"D 	c #3BC027",
"E 	c #35BC23",
"F 	c #30B920",
"G 	c #71CA68",
"H 	c #E9EDE9",
"I 	c #D1DAD8",
"J 	c #26574A",
"K 	c #40844B",
"L 	c #EFF4F0",
"M 	c #FFFFFF",
"N 	c #C4F1B7",
"O 	c #2AB51C",
"P 	c #25B118",
"Q 	c #9DD399",
"R 	c #ECECEC",
"S 	c #E4E8E7",
"T 	c #3D685E",
"U 	c #418748",
"V 	c #F8FAF8",
"W 	c #FCFCFC",
"X 	c #61D843",
"Y 	c #24AF1A",
"Z 	c #EFEFEF",
"` 	c #F0F0F0",
" .	c #EDEEEE",
"..	c #3D695D",
"+.	c #076310",
"@.	c #26752F",
"#.	c #267431",
"$.	c #77A77E",
"%.	c #FBFBFB",
"&.	c #68D74E",
"*.	c #7CD968",
"=.	c #C9EBC3",
"-.	c #C7E9C1",
";.	c #C4E7BE",
">.	c #C2E5BC",
",.	c #BFE3BA",
"'.	c #BDE1B9",
").	c #BADFB6",
"!.	c #B8DDB4",
"~.	c #54BD4C",
"{.	c #2FB128",
"].	c #EDEDED",
"^.	c #739587",
"/.	c #245A44",
"(.	c #245946",
"_.	c #07402F",
":.	c #4F8E57",
"<.	c #FAFAFA",
"[.	c #73D85D",
"}.	c #88DB78",
"|.	c #F8F8F8",
"1.	c #D0DED3",
"2.	c #C6D6CA",
"3.	c #C6D6CB",
"4.	c #C6D5CB",
"5.	c #CDD9D2",
"6.	c #F2F2F2",
"7.	c #63C15E",
"8.	c #3EB439",
"9.	c #4C7A64",
"0.	c #37803F",
"a.	c #7DD86B",
"b.	c #83D774",
"c.	c #F6F6F6",
"d.	c #2E733D",
"e.	c #2D6C43",
"f.	c #5EBD5A",
"g.	c #4BB547",
"h.	c #EEEEEE",
"i.	c #34694F",
"j.	c #24752B",
"k.	c #F9F9F9",
"l.	c #88D97A",
"m.	c #80D572",
"n.	c #31773E",
"o.	c #306F44",
"p.	c #5BBB58",
"q.	c #5CB95A",
"r.	c #235E3E",
"s.	c #0B6813",
"t.	c #95DB89",
"u.	c #7CD26F",
"v.	c #31793D",
"w.	c #307041",
"x.	c #56B754",
"y.	c #6CBD6C",
"z.	c #0B5029",
"A.	c #006206",
"B.	c #EFF3EF",
"C.	c #A1DC98",
"D.	c #77CF6C",
"E.	c #F4F4F4",
"F.	c #31793C",
"G.	c #307141",
"H.	c #52B552",
"I.	c #7EC27E",
"J.	c #E6E9E7",
"K.	c #00491C",
"L.	c #006503",
"M.	c #D8E5D9",
"N.	c #AEDEA7",
"O.	c #74CD6A",
"P.	c #F3F3F3",
"Q.	c #307A3A",
"R.	c #307340",
"S.	c #50B350",
"T.	c #91C891",
"U.	c #D1DBD5",
"V.	c #C2D8C3",
"W.	c #CCE6C9",
"X.	c #99D593",
"Y.	c #307B37",
"Z.	c #30743E",
"`.	c #EBEBEB",
" +	c #81C381",
".+	c #B6D3B6",
"++	c #BACBC0",
"@+	c #A7C8A8",
"#+	c #307C37",
"$+	c #30763D",
"%+	c #EAEAEA",
"&+	c #A2BCA9",
"*+	c #127313",
"=+	c #257B29",
"-+	c #257A29",
";+	c #257A2A",
">+	c #08650E",
",+	c #085E16",
"'+	c #246D33",
")+	c #246C34",
"!+	c #246B35",
"~+	c #125E25",
"                                                ",
"                                                ",
"                      . +                       ",
"                    @ # $ %                     ",
"        & * =     - ; > , ' )                   ",
"        ! & ~   { ] ^ / ( _ : <                 ",
"        [ ! & } | 1 2 3 4 5 6 7 8 9             ",
"        0 a b c d e 3 4 f g h i j k l           ",
"        m n o p q 3 4 f g r s t u v w x         ",
"      y z A B C 3 4 f g r s D E F G H I J       ",
"    K L M N C 3 4 f g r s D E F O P Q R S T     ",
"  U V c c W X 4 f g r s D E F O P Y R Z `  ...  ",
"  +.@.#.$.%.&.*.=.-.;.>.,.'.).!.~.{.].^./.(._.  ",
"        :.<.[.}.|.1.2.3.3.4.5.6.7.8.].9.        ",
"        0.<.a.b.c.d.        e.` f.g.h.i.        ",
"        j.k.l.m.c.n.        o.` p.q.h.r.        ",
"        s.|.t.u.j v.        w.Z x.y.h.z.        ",
"        A.B.C.D.E.F.        G.h.H.I.J.K.        ",
"        L.M.N.O.P.Q.        R.].S.T.U.*         ",
"          V.W.X.P.Y.        Z.`. +.+++          ",
"          @+E.P.E.#+        $+Z `.%+&+          ",
"          *+=+-+;+>+        ,+'+)+!+~+          ",
"                                                ",
"                                                "};
