/* XPM */
static char * zoom_detector_xpm[] = {
"24 24 256 2",
"  	c None",
". 	c #185CB8",
"+ 	c #7DAAE3",
"@ 	c #D5E7FB",
"# 	c #E1EEFC",
"$ 	c #E6F0FC",
"% 	c #E4EFFC",
"& 	c #DFEEFD",
"* 	c #B3D1F3",
"= 	c #4C7CC9",
"- 	c #7AABE4",
"; 	c #CCE2F8",
"> 	c #F2F6FD",
", 	c #F0F5FB",
"' 	c #CAD5EB",
") 	c #F0F5FC",
"! 	c #F7FAFE",
"~ 	c #F6F9FC",
"{ 	c #F7F7FC",
"] 	c #E0EDFA",
"^ 	c #B6D8F9",
"/ 	c #396ABC",
"( 	c #A0C9F5",
"_ 	c #CCDCF1",
": 	c #D4DCED",
"< 	c #DCE4F2",
"[ 	c #E1E8F5",
"} 	c #E8EEF8",
"| 	c #E3E8F3",
"1 	c #E4E9F5",
"2 	c #AED0F3",
"3 	c #5D8AD2",
"4 	c #92C1F3",
"5 	c #B7CAE7",
"6 	c #B9C7E3",
"7 	c #C0CDE7",
"8 	c #D4E1F3",
"9 	c #DEEAF9",
"0 	c #E5F1FD",
"a 	c #D7E2F2",
"b 	c #D0D9EC",
"c 	c #D0DAEC",
"d 	c #85B6EA",
"e 	c #4B79C7",
"f 	c #6BA2E2",
"g 	c #8DB2DE",
"h 	c #A8BBDE",
"i 	c #C7D7F0",
"j 	c #E0EFFF",
"k 	c #E1F0FF",
"l 	c #CCDAF0",
"m 	c #BFCDE6",
"n 	c #BECBE5",
"o 	c #C6D3EB",
"p 	c #C0CEE7",
"q 	c #62A3E5",
"r 	c #1A459B",
"s 	c #68A4E0",
"t 	c #6092C8",
"u 	c #D4E8FE",
"v 	c #DAECFF",
"w 	c #D1E2F8",
"x 	c #ADBEDE",
"y 	c #C2D3ED",
"z 	c #BDCDE9",
"A 	c #C3D4EE",
"B 	c #B3C5E3",
"C 	c #ABBCDD",
"D 	c #A7BCDE",
"E 	c #1C63AA",
"F 	c #80AFE8",
"G 	c #629CE0",
"H 	c #397EC2",
"I 	c #5EA0E1",
"J 	c #93CAFF",
"K 	c #BEDFFF",
"L 	c #D2E9FF",
"M 	c #D2E8FF",
"N 	c #B6CBEB",
"O 	c #9AAED7",
"P 	c #99ADD6",
"Q 	c #9EB3DA",
"R 	c #7194BF",
"S 	c #04407C",
"T 	c #003C79",
"U 	c #558EC8",
"V 	c #0D358A",
"W 	c #7FB2E7",
"X 	c #3B81C6",
"Y 	c #6FB8FF",
"Z 	c #7EC0FF",
"` 	c #8CC6FF",
" .	c #9CCFFF",
"..	c #AFD6FD",
"+.	c #83A0CB",
"@.	c #8AA4D0",
"#.	c #8CA6D1",
"$.	c #8BA5D1",
"%.	c #87A2CE",
"&.	c #7797C3",
"*.	c #486F9D",
"=.	c #164A80",
"-.	c #02366C",
";.	c #01356A",
">.	c #235C96",
",.	c #4975BE",
"'.	c #79AEE3",
").	c #0A427D",
"!.	c #2867A7",
"~.	c #579ADD",
"{.	c #89C5FF",
"].	c #92C9FF",
"^.	c #73A8DC",
"/.	c #0B407A",
"(.	c #063C76",
"_.	c #073D77",
":.	c #063D77",
"<.	c #1A5593",
"[.	c #2D72B8",
"}.	c #124B88",
"|.	c #154D88",
"1.	c #78A0DD",
"2.	c #4E84BD",
"3.	c #0C4282",
"4.	c #4283C6",
"5.	c #79BDFF",
"6.	c #81C1FF",
"7.	c #86C4FF",
"8.	c #7EB9F4",
"9.	c #82BEF8",
"0.	c #2E67A5",
"a.	c #195598",
"b.	c #4186CD",
"c.	c #589CE0",
"d.	c #437FBD",
"e.	c #8EB6EA",
"f.	c #598EC6",
"g.	c #11498E",
"h.	c #4A8FD8",
"i.	c #6FB9FF",
"j.	c #75BBFF",
"k.	c #77BCFF",
"l.	c #4585C9",
"m.	c #165196",
"n.	c #5BA8F3",
"o.	c #63AAF0",
"p.	c #427FC1",
"q.	c #73AFE9",
"r.	c #86ACE4",
"s.	c #71A1D7",
"t.	c #165099",
"u.	c #2565AF",
"v.	c #57ADFE",
"w.	c #5EB0FF",
"x.	c #62B2FF",
"y.	c #65B4FF",
"z.	c #478FDB",
"A.	c #1B569F",
"B.	c #488FD9",
"C.	c #71BAFF",
"D.	c #5595D8",
"E.	c #6DA8E5",
"F.	c #91C7FB",
"G.	c #6790D3",
"H.	c #7FB0E6",
"I.	c #1C58A5",
"J.	c #1B57A5",
"K.	c #306EBA",
"L.	c #579DE6",
"M.	c #66B4FF",
"N.	c #61B2FF",
"O.	c #5DB0FF",
"P.	c #5BAFFF",
"Q.	c #56A6F5",
"R.	c #1D5AA8",
"S.	c #3C7FCA",
"T.	c #71B6FA",
"U.	c #80C1FF",
"V.	c #4985CA",
"W.	c #6B9CD5",
"X.	c #244C9E",
"Y.	c #3877C5",
"Z.	c #467FC7",
"`.	c #2C6ABA",
" +	c #82C0FC",
".+	c #77BDFF",
"++	c #73BBFF",
"@+	c #6DB8FF",
"#+	c #4688D4",
"$+	c #4384D1",
"%+	c #7ABBFB",
"&+	c #7BB5F0",
"*+	c #669EDE",
"=+	c #2A67B7",
"-+	c #A6C9F0",
";+	c #95C0ED",
">+	c #538DD6",
",+	c #97CDFF",
"'+	c #90C9FF",
")+	c #89C6FF",
"!+	c #84C3FF",
"~+	c #81C2FF",
"{+	c #8CBFF4",
"]+	c #A9D6FF",
"^+	c #B1D7FB",
"/+	c #4D77C2",
"(+	c #2969B9",
"_+	c #88B4EB",
":+	c #9ECCFB",
"<+	c #A1D2FF",
"[+	c #9BCFFF",
"}+	c #94CBFF",
"|+	c #92CAFF",
"1+	c #A8D5FF",
"2+	c #B0D9FF",
"3+	c #BADEFF",
"4+	c #ABCBF1",
"5+	c #4882CB",
"6+	c #C5E4FF",
"7+	c #B2DAFF",
"8+	c #ADD8FF",
"9+	c #A6D4FF",
"0+	c #A5D4FF",
"a+	c #B8DDFF",
"b+	c #C1E1FF",
"c+	c #C2DDF9",
"d+	c #0D317D",
"e+	c #3972C1",
"f+	c #CBE6FE",
"g+	c #C0E1FF",
"h+	c #B4DBFE",
"i+	c #B7DCFF",
"j+	c #B7DDFF",
"k+	c #BBDFFF",
"l+	c #BFE1FF",
"m+	c #C4E3FF",
"n+	c #CEE9FF",
"o+	c #ABCAF1",
"p+	c #0D317B",
"q+	c #114998",
"r+	c #84B0E7",
"s+	c #93BEF7",
"t+	c #6EA5F3",
"u+	c #639DF2",
"v+	c #78ACF5",
"w+	c #72A8F4",
"x+	c #84B5F6",
"y+	c #BBDAFC",
"z+	c #C4DEFA",
"A+	c #4574BE",
"B+	c #396DBB",
"C+	c #699ADB",
"D+	c #7CAAEA",
"E+	c #76A4E7",
"F+	c #5889D2",
"G+	c #1C4D9D",
"                                                ",
"                                                ",
"              . + @ # $ % & * =                 ",
"            - ; > , ' ) ! ~ { ] ^ /             ",
"          ( _ : : < [ } | | | | 1 2 3           ",
"        4 5 6 7 8 9 0 a b b b b b c d e         ",
"      f g h i j k k k l m n n o n n p q r       ",
"      s t u v v v v w x y z A B C C D E F       ",
"    G H I J K L M N O P P P P P Q R S T U V     ",
"    W X Y Z `  ...+.@.#.$.%.&.*.=.-.;.;.>.,.    ",
"    '.).!.~.Z {.].^./.(._.(.(.(.:.<.[.}.|.1.    ",
"    2.3.3.3.4.5.6.7.8.9.0.3.3.3.3.a.b.c.d.e.    ",
"    f.g.g.g.g.h.i.j.k.k.l.g.g.g.m.n.o.p.q.r.    ",
"    s.t.t.t.u.v.w.x.y.y.z.t.t.A.B.C.D.E.F.G.    ",
"    H.I.J.K.L.M.N.O.P.P.Q.R.J.S.T.U.V.J.W.X.    ",
"    Y.Z.`. +Z .+++i.@+@+i.#+$+%+7.&+*+=+-+      ",
"      ;+>+,+'+)+!+~+U.U.~+!+)+'+,+{+]+^+/+      ",
"      (+_+:+<+[+,+}+|+|+}+,+[+<+1+2+3+4+        ",
"        5+6+7+8+]+9+0+0+9+]+8+7+a+b+c+d+        ",
"          e+f+g+h+i+j+j+a+k+l+m+n+o+p+          ",
"            q+r+s+t+u+v+w+x+y+z+A+              ",
"                  B+C+D+E+F+G+                  ",
"                                                ",
"                                                "};
