/* XPM */
static char * zoom_event_xpm[] = {
"24 24 250 2",
"  	c None",
". 	c #676767",
"+ 	c #6B6B6B",
"@ 	c #717171",
"# 	c #A9A9A9",
"$ 	c #C9C9C9",
"% 	c #C6C7C9",
"& 	c #B8BAC1",
"* 	c #B9B9B9",
"= 	c #A7A7A7",
"- 	c #6D6D6D",
"; 	c #5A985F",
"> 	c #92B898",
", 	c #B8CFBE",
"' 	c #CEDCD3",
") 	c #C7D6CF",
"! 	c #4F786C",
"~ 	c #929292",
"{ 	c #D2D4D7",
"] 	c #8CA3DE",
"^ 	c #7E9DF0",
"/ 	c #96B1F9",
"( 	c #9AB3F9",
"_ 	c #83A3F4",
": 	c #6887D6",
"< 	c #8C94A9",
"[ 	c #979797",
"} 	c #D5E4D6",
"| 	c #AEE8AE",
"1 	c #57D457",
"2 	c #4AD14A",
"3 	c #60D660",
"4 	c #C2D0CB",
"5 	c #949494",
"6 	c #CFD4E0",
"7 	c #7EA4F3",
"8 	c #C4DEFE",
"9 	c #D6EAFF",
"0 	c #DAECFF",
"a 	c #D8EBFF",
"b 	c #D2E8FF",
"c 	c #C8E4FF",
"d 	c #91B8FA",
"e 	c #6B7FAB",
"f 	c #2B7B32",
"g 	c #E5F1E5",
"h 	c #35BC35",
"i 	c #29B929",
"j 	c #41C041",
"k 	c #C4D0CD",
"l 	c #707070",
"m 	c #D8DADD",
"n 	c #83ADF7",
"o 	c #B9DBFF",
"p 	c #C2E1FF",
"q 	c #CBE5FF",
"r 	c #CAE4FF",
"s 	c #C5E2FF",
"t 	c #BDDEFF",
"u 	c #B4D9FF",
"v 	c #92BFFC",
"w 	c #707F9D",
"x 	c #467847",
"y 	c #D7E4D7",
"z 	c #4CB54C",
"A 	c #1EA51E",
"B 	c #28A928",
"C 	c #45B345",
"D 	c #AEBFBA",
"E 	c #AFAFAF",
"F 	c #B0C8F3",
"G 	c #A0CEFE",
"H 	c #AED7FF",
"I 	c #B5DAFF",
"J 	c #BADDFF",
"K 	c #BCDEFF",
"L 	c #BCDDFF",
"M 	c #B8DCFF",
"N 	c #B2D8FF",
"O 	c #A9D4FF",
"P 	c #9FCFFF",
"Q 	c #5D99BD",
"R 	c #B8D0B8",
"S 	c #6EB66E",
"T 	c #149114",
"U 	c #42A442",
"V 	c #DBE4DB",
"W 	c #9AC99A",
"X 	c #8AA39B",
"Y 	c #D7D7D7",
"Z 	c #8CBAFA",
"` 	c #9ACDFF",
" .	c #A2D1FF",
"..	c #A8D4FF",
"+.	c #ACD6FF",
"@.	c #ADD6FF",
"#.	c #AAD5FF",
"$.	c #A5D2FF",
"%.	c #9ECEFF",
"&.	c #95CAFF",
"*.	c #99C9FE",
"=.	c #487E58",
"-.	c #CDDBCE",
";.	c #67A967",
">.	c #CEDAD0",
",.	c #2A6841",
"'.	c #CAD4CF",
").	c #547B6F",
"!.	c #616161",
"~.	c #E0E1E2",
"{.	c #94C4FD",
"].	c #9CCEFF",
"^.	c #9ECFFF",
"/.	c #A0D0FF",
"(.	c #97CBFF",
"_.	c #97CCFF",
":.	c #A3D2FF",
"<.	c #B0D9FF",
"[.	c #728BAC",
"}.	c #416C45",
"|.	c #B3C8B6",
"1.	c #276C39",
"2.	c #DEE0E3",
"3.	c #A6CFFE",
"4.	c #AFD8FF",
"5.	c #A5D3FF",
"6.	c #99CDFF",
"7.	c #98CCFF",
"8.	c #AAD6FF",
"9.	c #B5DBFF",
"0.	c #C1E1FF",
"a.	c #7994B5",
"b.	c #636363",
"c.	c #AFD5FE",
"d.	c #C1E2FF",
"e.	c #B9DDFF",
"f.	c #B3DAFF",
"g.	c #AED8FF",
"h.	c #ADD7FF",
"i.	c #B1D9FF",
"j.	c #B6DCFF",
"k.	c #BEE0FF",
"l.	c #C7E5FF",
"m.	c #C8E5FF",
"n.	c #75899D",
"o.	c #555555",
"p.	c #B7B7B7",
"q.	c #BCDCFA",
"r.	c #CDE8FF",
"s.	c #CAE6FF",
"t.	c #C4E3FF",
"u.	c #C2E2FF",
"v.	c #C3E2FF",
"w.	c #C6E4FF",
"x.	c #C9E6FF",
"y.	c #CCE7FF",
"z.	c #CFE9FF",
"A.	c #BDDDFD",
"B.	c #7A7E82",
"C.	c #343434",
"D.	c #898989",
"E.	c #D2D8DF",
"F.	c #D2EAFF",
"G.	c #D0E9FF",
"H.	c #CFE8FF",
"I.	c #CEE8FF",
"J.	c #D1EAFF",
"K.	c #D3EBFF",
"L.	c #D4EBFF",
"M.	c #93ACC5",
"N.	c #7D7D7D",
"O.	c #ACACAC",
"P.	c #CCDBE9",
"Q.	c #D8EDFF",
"R.	c #D7ECFF",
"S.	c #D6ECFF",
"T.	c #D9EDFF",
"U.	c #B1CCE8",
"V.	c #888A8B",
"W.	c #3F3F3F",
"X.	c #ABABAB",
"Y.	c #C6D1DA",
"Z.	c #A1CAC8",
"`.	c #DEF0FF",
" +	c #DFF0FF",
".+	c #DDEFFF",
"++	c #D1E9FE",
"@+	c #A8BCCE",
"#+	c #8D8E8F",
"$+	c #B0B0B0",
"%+	c #B6B4B4",
"&+	c #AC2A28",
"*+	c #548555",
"=+	c #699A6F",
"-+	c #B9C7D4",
";+	c #B7C7D4",
">+	c #A7B3BD",
",+	c #939698",
"'+	c #868686",
")+	c #505050",
"!+	c #8C8888",
"~+	c #C3C3C3",
"{+	c #E5E0C5",
"]+	c #EFA744",
"^+	c #5B9960",
"/+	c #D5E4D7",
"(+	c #6FB76F",
"_+	c #507B54",
":+	c #828282",
"<+	c #757575",
"[+	c #5E5E5E",
"}+	c #A53432",
"|+	c #D5CEA8",
"1+	c #F0D267",
"2+	c #FFE151",
"3+	c #E99A41",
"4+	c #91B698",
"5+	c #AFE8AF",
"6+	c #E4F1E4",
"7+	c #66A966",
"8+	c #E45E10",
"9+	c #FF8813",
"0+	c #FFB432",
"a+	c #FFE152",
"b+	c #E69A41",
"c+	c #B9CFBF",
"d+	c #58D558",
"e+	c #33BC33",
"f+	c #DB4302",
"g+	c #FF8713",
"h+	c #E39A41",
"i+	c #CBDBD1",
"j+	c #49D149",
"k+	c #2AA92A",
"l+	c #D84302",
"m+	c #DF983E",
"n+	c #C9D7D0",
"o+	c #5ED65E",
"p+	c #42C142",
"q+	c #44B344",
"r+	c #C9D3CE",
"s+	c #D54302",
"t+	c #FED950",
"u+	c #C1CFCA",
"v+	c #AFC0BB",
"w+	c #89A39A",
"x+	c #557C70",
"y+	c #D04302",
"z+	c #FE8614",
"A+	c #CF631C",
"                                                ",
"                . +                             ",
"          @ # $ % & * = -       ; > , ' ) !     ",
"        ~ { ] ^ / ( _ : < [     } | 1 2 3 4     ",
"      5 6 7 8 9 0 a b c d e [   f g h i j k     ",
"    l m n o p c q r s t u v w x y z A B C D     ",
"    E F G H I J K L M N O P Q R S T U V W X     ",
"    Y Z `  ...+.H @.#.$.%.&.*.=.-.;.>.,.'.).    ",
"  !.~.{.].&.` ^./.P ].(._.:.<.[.}.|.1.          ",
"  . 2.3.4.5.^.6._.7.]. .8.9.0.a.b.              ",
"    Y c.d.e.f.g.h.h.i.j.k.l.m.n.o.              ",
"    p.q.r.s.l.t.u.v.w.x.y.z.A.B.C.              ",
"    D.E.v.F.G.H.I.I.z.J.K.L.M.N.                ",
"      O.P.H.Q.R.S.S.R.T.Q.U.V.W.                ",
"        X.Y.Z.T.`. +.+++@+#+$+%+&+              ",
"          *+R =+-+;+>+,+'+)+!+~+{+]+            ",
"    ^+/+f y (+-._+:+<+[+    }+|+1+2+3+          ",
"    4+5+6+z T 7+|.            8+9+0+a+b+        ",
"    c+d+e+A U >.1.              f+g+0+a+h+      ",
"    i+j+i k+V ,.                  l+g+0+a+m+    ",
"    n+o+p+q+W r+                    s+g+0+t+    ",
"    ! u+k v+w+x+                      y+z+A+    ",
"                                                ",
"                                                "};
