/* XPM */
static char * zoom_in_xpm[] = {
"24 24 231 2",
"  	c None",
". 	c #676767",
"+ 	c #6B6B6B",
"@ 	c #717171",
"# 	c #A9A9A9",
"$ 	c #C9C9C9",
"% 	c #C6C7C9",
"& 	c #B8BAC1",
"* 	c #B9B9B9",
"= 	c #A7A7A7",
"- 	c #6D6D6D",
"; 	c #929292",
"> 	c #D2D4D7",
", 	c #8CA3DE",
"' 	c #7E9DF0",
") 	c #96B1F9",
"! 	c #9AB3F9",
"~ 	c #83A3F4",
"{ 	c #6887D6",
"] 	c #8C94A9",
"^ 	c #979797",
"/ 	c #949494",
"( 	c #CFD4E0",
"_ 	c #7EA4F3",
": 	c #C4DEFE",
"< 	c #D6EAFF",
"[ 	c #DAECFF",
"} 	c #D8EBFF",
"| 	c #D2E8FF",
"1 	c #C8E4FF",
"2 	c #91B8FA",
"3 	c #6B7FAB",
"4 	c #707070",
"5 	c #D8DADD",
"6 	c #83ADF7",
"7 	c #B9DBFF",
"8 	c #C2E1FF",
"9 	c #CBE5FF",
"0 	c #CAE4FF",
"a 	c #C5E2FF",
"b 	c #BDDEFF",
"c 	c #B4D9FF",
"d 	c #92BFFC",
"e 	c #707F9D",
"f 	c #AFAFAF",
"g 	c #B0C8F3",
"h 	c #A0CEFE",
"i 	c #AED7FF",
"j 	c #B5DAFF",
"k 	c #BADDFF",
"l 	c #BCDEFF",
"m 	c #BCDDFF",
"n 	c #B8DCFF",
"o 	c #B2D8FF",
"p 	c #A9D4FF",
"q 	c #9FCFFF",
"r 	c #75A6EE",
"s 	c #8F9091",
"t 	c #1F1F1F",
"u 	c #D7D7D7",
"v 	c #8CBAFA",
"w 	c #9ACDFF",
"x 	c #A2D1FF",
"y 	c #A8D4FF",
"z 	c #ACD6FF",
"A 	c #ADD6FF",
"B 	c #AAD5FF",
"C 	c #A5D2FF",
"D 	c #9ECEFF",
"E 	c #95CAFF",
"F 	c #99C9FE",
"G 	c #728095",
"H 	c #4E4E4E",
"I 	c #616161",
"J 	c #E0E1E2",
"K 	c #94C4FD",
"L 	c #9CCEFF",
"M 	c #9ECFFF",
"N 	c #A0D0FF",
"O 	c #97CBFF",
"P 	c #97CCFF",
"Q 	c #A3D2FF",
"R 	c #B0D9FF",
"S 	c #728BAC",
"T 	c #636363",
"U 	c #DEE0E3",
"V 	c #A6CFFE",
"W 	c #AFD8FF",
"X 	c #A5D3FF",
"Y 	c #99CDFF",
"Z 	c #98CCFF",
"` 	c #AAD6FF",
" .	c #B5DBFF",
"..	c #C1E1FF",
"+.	c #7994B5",
"@.	c #AFD5FE",
"#.	c #C1E2FF",
"$.	c #B9DDFF",
"%.	c #B3DAFF",
"&.	c #AED8FF",
"*.	c #ADD7FF",
"=.	c #B1D9FF",
"-.	c #B6DCFF",
";.	c #BEE0FF",
">.	c #C7E5FF",
",.	c #C8E5FF",
"'.	c #75899D",
").	c #555555",
"!.	c #B7B7B7",
"~.	c #BCDCFA",
"{.	c #CDE8FF",
"].	c #CAE6FF",
"^.	c #C4E3FF",
"/.	c #C2E2FF",
"(.	c #C3E2FF",
"_.	c #C6E4FF",
":.	c #C9E6FF",
"<.	c #CCE7FF",
"[.	c #CFE9FF",
"}.	c #BDDDFD",
"|.	c #7A7E82",
"1.	c #343434",
"2.	c #898989",
"3.	c #D2D8DF",
"4.	c #D2EAFF",
"5.	c #A9CED2",
"6.	c #98C1C0",
"7.	c #97C0C0",
"8.	c #ABCED8",
"9.	c #D1EAFF",
"0.	c #D3EBFF",
"a.	c #D4EBFF",
"b.	c #93ACC5",
"c.	c #7D7D7D",
"d.	c #ACACAC",
"e.	c #CCDBE9",
"f.	c #79AE98",
"g.	c #AAC8AF",
"h.	c #CCDDCF",
"i.	c #CCDDD0",
"j.	c #A3C0AB",
"k.	c #8BB4AD",
"l.	c #D9EDFF",
"m.	c #D8EDFF",
"n.	c #B1CCE8",
"o.	c #888A8B",
"p.	c #3F3F3F",
"q.	c #ABABAB",
"r.	c #669B72",
"s.	c #CEE6CE",
"t.	c #319A31",
"u.	c #33A033",
"v.	c #DCEFDC",
"w.	c #6E9C88",
"x.	c #D1E9FE",
"y.	c #A8BCCE",
"z.	c #8D8E8F",
"A.	c #B0B0B0",
"B.	c #B6B4B4",
"C.	c #AC2A28",
"D.	c #538E58",
"E.	c #6DA073",
"F.	c #C6E2C6",
"G.	c #118B11",
"H.	c #149114",
"I.	c #D6EDD6",
"J.	c #669476",
"K.	c #5E876E",
"L.	c #537060",
"M.	c #505050",
"N.	c #8C8888",
"O.	c #C3C3C3",
"P.	c #E5E0C5",
"Q.	c #EFA744",
"R.	c #9EC4A0",
"S.	c #C0DDC0",
"T.	c #AED5AE",
"U.	c #89C389",
"V.	c #96D096",
"W.	c #B3DEB3",
"X.	c #CAE9CA",
"Y.	c #94B2A1",
"Z.	c #A53432",
"`.	c #D5CEA8",
" +	c #F0D267",
".+	c #FFE151",
"++	c #E99A41",
"@+	c #B4D1B5",
"#+	c #429942",
"$+	c #0B800B",
"%+	c #0E850E",
"&+	c #179717",
"*+	c #1A9C1A",
"=+	c #5FBD5F",
"-+	c #A5BEB0",
";+	c #E45E10",
">+	c #FF8813",
",+	c #FFB432",
"'+	c #FFE152",
")+	c #E69A41",
"!+	c #DB4302",
"~+	c #FF8713",
"{+	c #E39A41",
"]+	c #8AB78C",
"^+	c #E6F1E6",
"/+	c #DEEEDE",
"(+	c #AED6AE",
"_+	c #BDE1BD",
":+	c #E0F2E0",
"<+	c #E9F5E9",
"[+	c #759B86",
"}+	c #D84302",
"|+	c #DF983E",
"1+	c #1D7224",
"2+	c #43884B",
"3+	c #35724A",
"4+	c #D54302",
"5+	c #FED950",
"6+	c #388041",
"7+	c #D9ECD9",
"8+	c #60B260",
"9+	c #62B662",
"0+	c #E4F3E4",
"a+	c #27683E",
"b+	c #D04302",
"c+	c #FE8614",
"d+	c #CF631C",
"e+	c #81AE88",
"f+	c #99BCA0",
"g+	c #99BAA1",
"h+	c #719E7E",
"                                                ",
"                . +                             ",
"          @ # $ % & * = -                       ",
"        ; > , ' ) ! ~ { ] ^                     ",
"      / ( _ : < [ } | 1 2 3 ^                   ",
"    4 5 6 7 8 1 9 0 a b c d e 4                 ",
"    f g h i j k l m n o p q r s t               ",
"    u v w x y z i A B C D E F G H               ",
"  I J K L E w M N q L O P Q R S T               ",
"  . U V W X M Y P Z L x `  ...+.T               ",
"    u @.#.$.%.&.*.*.=.-.;.>.,.'.).              ",
"    !.~.{.].>.^./.(._.:.<.[.}.|.1.              ",
"    2.3.(.4.5.6.7.8.[.9.0.a.b.c.                ",
"      d.e.f.g.h.i.j.k.l.m.n.o.p.                ",
"        q.r.s.t.u.v.w.x.y.z.A.B.C.              ",
"        D.E.F.G.H.I.J.K.L.M.N.O.P.Q.            ",
"      R.S.T.U.G.H.V.W.X.Y.  Z.`. +.+++          ",
"      @+#+$+%+G.H.&+*+=+-+    ;+>+,+'+)+        ",
"      @+#+$+%+G.H.&+*+=+-+      !+~+,+'+{+      ",
"      ]+^+/+(+G.H._+:+<+[+        }+~+,+'+|+    ",
"        1+2+F.G.H.I.3+              4+~+,+5+    ",
"          6+7+8+9+0+a+                b+c+d+    ",
"            e+f+g+h+                            ",
"                                                "};
